<svg width="2560" height="1439.9999999999998" xmlns="http://www.w3.org/2000/svg">
 <!-- Created with Method Draw - http://github.com/duopixel/Method-Draw/ -->
 <g>
  <title>background</title>
  <rect fill="#ffffff" id="canvas_background" height="1442" width="2562" y="-1" x="-1"/>
  <g display="none" overflow="visible" y="0" x="0" height="100%" width="100%" id="canvasGrid">
   <rect fill="url(#gridpattern)" stroke-width="0" y="0" x="0" height="100%" width="100%"/>
  </g>
 </g>
 <g>
  <title>Layer 1</title>
  <rect transform="rotate(69.64604187011719 560.7076416015625,795.9918823242186) " stroke="#000" id="svg_450" height="1.95949" width="2292.42021" y="795.01213" x="-585.50235" stroke-opacity="null" fill="#007f3f"/>
  <rect transform="rotate(69.64604187011719 560.7076416015625,795.9918823242186) " stroke="#000" id="svg_451" height="1.95949" width="2292.42021" y="795.01213" x="-585.50235" stroke-opacity="null" fill="#007f3f"/>
  <rect transform="rotate(69.64604187011719 511.1580810546875,817.6135253906251) " stroke="#000" id="svg_452" height="1.95949" width="2292.42021" y="816.63375" x="-635.0519" stroke-opacity="null" fill="#007f3f"/>
  <rect transform="rotate(69.64604187011719 617.4643554687499,785.1810913085935) " stroke="#000" id="svg_453" height="1.95949" width="2292.42021" y="784.20132" x="-528.7456" stroke-opacity="null" fill="#007f3f"/>
  <rect transform="rotate(69.64604187011719 724.6716308593751,751.8477172851561) " stroke="#000" id="svg_454" height="1.95949" width="2292.42021" y="750.868" x="-421.53841" stroke-opacity="null" fill="#007f3f"/>
  <rect transform="rotate(69.64604187011719 724.6716308593751,751.8477172851561) " stroke="#000" id="svg_455" height="1.95949" width="2292.42021" y="750.868" x="-421.53841" stroke-opacity="null" fill="#007f3f"/>
  <rect transform="rotate(69.64604187011719 675.1220703125001,773.4693603515624) " stroke="#000" id="svg_456" height="1.95949" width="2292.42021" y="772.48962" x="-471.08796" stroke-opacity="null" fill="#007f3f"/>
  <rect transform="rotate(69.64604187011719 781.4283447265625,741.0369262695312) " stroke="#000" id="svg_457" height="1.95949" width="2292.42021" y="740.05719" x="-364.78166" stroke-opacity="null" fill="#007f3f"/>
  <rect transform="rotate(69.64604187011719 890.4373779296877,716.7125854492186) " stroke="#000" id="svg_458" height="1.95949" width="2292.42021" y="715.73286" x="-255.77265" stroke-opacity="null" fill="#007f3f"/>
  <rect transform="rotate(69.64604187011719 890.4373779296877,716.7125854492186) " stroke="#000" id="svg_459" height="1.95949" width="2292.42021" y="715.73286" x="-255.77265" stroke-opacity="null" fill="#007f3f"/>
  <rect transform="rotate(69.64604187011719 840.8878173828126,738.3342285156249) " stroke="#000" id="svg_460" height="1.95949" width="2292.42021" y="737.35448" x="-305.32219" stroke-opacity="null" fill="#007f3f"/>
  <rect transform="rotate(69.64604187011719 947.1940917968751,705.9017944335935) " stroke="#000" id="svg_461" height="1.95949" width="2292.42021" y="704.92205" x="-199.0159" stroke-opacity="null" fill="#007f3f"/>
  <rect transform="rotate(69.64604187011719 1054.4013671875002,672.5684204101561) " stroke="#000" id="svg_462" height="1.95949" width="2292.42021" y="671.58872" x="-91.8087" stroke-opacity="null" fill="#007f3f"/>
  <rect transform="rotate(69.64604187011719 1054.4013671875002,672.5684204101561) " stroke="#000" id="svg_463" height="1.95949" width="2292.42021" y="671.58872" x="-91.8087" stroke-opacity="null" fill="#007f3f"/>
  <rect transform="rotate(69.64604187011719 1004.851806640625,694.1900634765625) " stroke="#000" id="svg_464" height="1.95949" width="2292.42021" y="693.21034" x="-141.35825" stroke-opacity="null" fill="#007f3f"/>
  <rect transform="rotate(69.64604187011719 -188.84216308593736,571.4350585937499) " stroke="#000" id="svg_465" height="1.95949" width="2292.42021" y="570.45532" x="-1335.0522" stroke-opacity="null" fill="#007f3f"/>
  <rect transform="rotate(69.64604187011719 -103.25628662109358,932.928771972656) " stroke="#000" id="svg_466" height="1.95949" width="2292.42021" y="931.94905" x="-1249.46628" stroke-opacity="null" fill="#007f3f"/>
  <rect transform="rotate(69.64604187011719 -103.25628662109358,932.928771972656) " stroke="#000" id="svg_467" height="1.95949" width="2292.42021" y="931.94905" x="-1249.46628" stroke-opacity="null" fill="#007f3f"/>
  <rect transform="rotate(69.64604187011719 -152.8058471679684,954.5504150390623) " stroke="#000" id="svg_468" height="1.95949" width="2292.42021" y="953.57067" x="-1299.01583" stroke-opacity="null" fill="#007f3f"/>
  <rect transform="rotate(69.64604187011719 -46.49957275390602,922.1179809570311) " stroke="#000" id="svg_469" height="1.95949" width="2292.42021" y="921.13824" x="-1192.70953" stroke-opacity="null" fill="#007f3f"/>
  <rect transform="rotate(69.64604187011719 60.70770263671871,888.7846069335938) " stroke="#000" id="svg_470" height="1.95949" width="2292.42021" y="887.80492" x="-1085.50234" stroke-opacity="null" fill="#007f3f"/>
  <rect transform="rotate(69.64604187011719 60.70770263671871,888.7846069335938) " stroke="#000" id="svg_471" height="1.95949" width="2292.42021" y="887.80492" x="-1085.50234" stroke-opacity="null" fill="#007f3f"/>
  <rect transform="rotate(69.64604187011719 11.158142089843693,910.40625) " stroke="#000" id="svg_472" height="1.95949" width="2292.42021" y="909.42654" x="-1135.05188" stroke-opacity="null" fill="#007f3f"/>
  <rect transform="rotate(69.64604187011719 117.46441650390662,877.9738159179685) " stroke="#000" id="svg_473" height="1.95949" width="2292.42021" y="876.99411" x="-1028.74559" stroke-opacity="null" fill="#007f3f"/>
  <rect transform="rotate(69.64604187011719 226.47344970703122,853.6494750976562) " stroke="#000" id="svg_474" height="1.95949" width="2292.42021" y="852.66978" x="-919.73658" stroke-opacity="null" fill="#007f3f"/>
  <rect transform="rotate(69.64604187011719 226.47344970703122,853.6494750976562) " stroke="#000" id="svg_475" height="1.95949" width="2292.42021" y="852.66978" x="-919.73658" stroke-opacity="null" fill="#007f3f"/>
  <rect transform="rotate(69.64604187011719 176.92388916015622,875.2711181640625) " stroke="#000" id="svg_476" height="1.95949" width="2292.42021" y="874.2914" x="-969.28612" stroke-opacity="null" fill="#007f3f"/>
  <rect transform="rotate(69.64604187011719 283.230163574219,842.8386840820311) " stroke="#000" id="svg_477" height="1.95949" width="2292.42021" y="841.85897" x="-862.97982" stroke-opacity="null" fill="#007f3f"/>
  <rect transform="rotate(69.64604187011719 390.43737792968756,809.5053100585938) " stroke="#000" id="svg_478" height="1.95949" width="2292.42021" y="808.52564" x="-755.77263" stroke-opacity="null" fill="#007f3f"/>
  <rect transform="rotate(69.64604187011719 390.43737792968756,809.5053100585938) " stroke="#000" id="svg_479" height="1.95949" width="2292.42021" y="808.52564" x="-755.77263" stroke-opacity="null" fill="#007f3f"/>
  <rect transform="rotate(69.64604187011719 340.88781738281256,831.126953125) " stroke="#000" id="svg_480" height="1.95949" width="2292.42021" y="830.14726" x="-805.32218" stroke-opacity="null" fill="#007f3f"/>
  <rect transform="rotate(69.64604187011719 447.1940917968751,798.6945190429688) " stroke="#000" id="svg_481" height="1.95949" width="2292.42021" y="797.71483" x="-699.01588" stroke-opacity="null" fill="#007f3f"/>
  <rect transform="rotate(114.88799285888672 -188.1329345703125,570.725830078125) " stroke="#000" id="svg_482" height="1.95949" width="2292.42021" y="569.7461" x="-1334.34298" stroke-opacity="null" fill="#007f3f"/>
  <rect transform="rotate(114.88799285888672 -146.98828125,601.9414672851562) " stroke="#000" id="svg_483" height="1.95949" width="2292.42021" y="600.96171" x="-1293.1983" stroke-opacity="null" fill="#007f3f"/>
  <rect transform="rotate(114.88799285888672 -235.650634765625,550.86767578125) " stroke="#000" id="svg_484" height="1.95949" width="2292.42021" y="549.88796" x="-1381.86067" stroke-opacity="null" fill="#007f3f"/>
  <rect transform="rotate(114.88799285888672 -273.948486328125,525.3358154296875) " stroke="#000" id="svg_485" height="1.95949" width="2292.42021" y="524.35607" x="-1420.15851" stroke-opacity="null" fill="#007f3f"/>
  <rect transform="rotate(114.88799285888672 -31.513183593750032,580.255615234375) " stroke="#000" id="svg_487" height="1.95949" width="2292.42021" y="579.27583" x="-1177.72328" stroke-opacity="null" fill="#007f3f"/>
  <rect transform="rotate(114.88799285888672 11.039916992187553,612.8796997070311) " stroke="#000" id="svg_488" height="1.95949" width="2292.42021" y="611.89992" x="-1135.17012" stroke-opacity="null" fill="#007f3f"/>
  <rect transform="rotate(114.88799285888672 -83.535400390625,574.811767578125) " stroke="#000" id="svg_489" height="1.95949" width="2292.42021" y="573.83202" x="-1229.74544" stroke-opacity="null" fill="#007f3f"/>
  <rect transform="rotate(114.88799285888672 112.15124511718747,640.8200073242188) " stroke="#000" id="svg_490" height="1.95949" width="2292.42021" y="639.84022" x="-1034.05892" stroke-opacity="null" fill="#007f3f"/>
  <rect transform="rotate(114.88799285888672 154.7042236328125,673.444091796875) " stroke="#000" id="svg_491" height="1.95949" width="2292.42021" y="672.4643" x="-991.50577" stroke-opacity="null" fill="#007f3f"/>
  <rect transform="rotate(114.88799285888672 64.63342285156253,620.9618530273438) " stroke="#000" id="svg_492" height="1.95949" width="2292.42021" y="619.98208" x="-1081.57661" stroke-opacity="null" fill="#007f3f"/>
  <rect transform="rotate(114.88799285888672 265.6748046875,666.1725463867188) " stroke="#000" id="svg_493" height="1.95949" width="2292.42021" y="665.19276" x="-880.53523" stroke-opacity="null" fill="#007f3f"/>
  <rect transform="rotate(114.88799285888672 308.2279052734376,698.796630859375) " stroke="#000" id="svg_494" height="1.95949" width="2292.42021" y="697.81684" x="-837.98208" stroke-opacity="null" fill="#007f3f"/>
  <rect transform="rotate(114.88799285888672 218.15710449218747,646.3143920898438) " stroke="#000" id="svg_495" height="1.95949" width="2292.42021" y="645.33462" x="-928.05292" stroke-opacity="null" fill="#007f3f"/>
  <rect transform="rotate(114.88799285888672 -188.1329345703125,570.725830078125) " stroke="#000" id="svg_496" height="1.95949" width="2292.42021" y="569.7461" x="-1334.34298" stroke-opacity="null" fill="#007f3f"/>
  <rect transform="rotate(114.88799285888672 -146.98828125,601.9414672851562) " stroke="#000" id="svg_497" height="1.95949" width="2292.42021" y="600.96171" x="-1293.1983" stroke-opacity="null" fill="#007f3f"/>
  <rect transform="rotate(114.88799285888672 -235.650634765625,550.86767578125) " stroke="#000" id="svg_498" height="1.95949" width="2292.42021" y="549.88796" x="-1381.86067" stroke-opacity="null" fill="#007f3f"/>
  <rect transform="rotate(114.88799285888672 -31.513183593750032,580.255615234375) " stroke="#000" id="svg_499" height="1.95949" width="2292.42021" y="579.27583" x="-1177.72328" stroke-opacity="null" fill="#007f3f"/>
  <rect transform="rotate(114.88799285888672 11.039916992187553,612.8796997070311) " stroke="#000" id="svg_500" height="1.95949" width="2292.42021" y="611.89992" x="-1135.17012" stroke-opacity="null" fill="#007f3f"/>
  <rect transform="rotate(114.88799285888672 -83.535400390625,574.811767578125) " stroke="#000" id="svg_501" height="1.95949" width="2292.42021" y="573.83202" x="-1229.74544" stroke-opacity="null" fill="#007f3f"/>
  <rect transform="rotate(114.88799285888672 112.15124511718747,640.8200073242188) " stroke="#000" id="svg_502" height="1.95949" width="2292.42021" y="639.84022" x="-1034.05892" stroke-opacity="null" fill="#007f3f"/>
  <rect transform="rotate(114.88799285888672 154.7042236328125,673.444091796875) " stroke="#000" id="svg_503" height="1.95949" width="2292.42021" y="672.4643" x="-991.50577" stroke-opacity="null" fill="#007f3f"/>
  <rect transform="rotate(114.88799285888672 64.63342285156253,620.9618530273438) " stroke="#000" id="svg_504" height="1.95949" width="2292.42021" y="619.98208" x="-1081.57661" stroke-opacity="null" fill="#007f3f"/>
  <rect transform="rotate(114.88799285888672 265.6748046875,666.1725463867188) " stroke="#000" id="svg_505" height="1.95949" width="2292.42021" y="665.19276" x="-880.53523" stroke-opacity="null" fill="#007f3f"/>
  <rect transform="rotate(114.88799285888672 308.2279052734376,698.796630859375) " stroke="#000" id="svg_506" height="1.95949" width="2292.42021" y="697.81684" x="-837.98208" stroke-opacity="null" fill="#007f3f"/>
  <rect transform="rotate(114.88799285888672 218.15710449218747,646.3143920898438) " stroke="#000" id="svg_507" height="1.95949" width="2292.42021" y="645.33462" x="-928.05292" stroke-opacity="null" fill="#007f3f"/>
  <rect transform="rotate(114.88799285888672 -188.1329345703125,570.725830078125) " stroke="#000" id="svg_508" height="1.95949" width="2292.42021" y="569.7461" x="-1334.34298" stroke-opacity="null" fill="#007f3f"/>
  <rect transform="rotate(114.88799285888672 -146.98828125,601.9414672851562) " stroke="#000" id="svg_509" height="1.95949" width="2292.42021" y="600.96171" x="-1293.1983" stroke-opacity="null" fill="#007f3f"/>
  <rect transform="rotate(114.88799285888672 -235.650634765625,550.86767578125) " stroke="#000" id="svg_510" height="1.95949" width="2292.42021" y="549.88796" x="-1381.86067" stroke-opacity="null" fill="#007f3f"/>
  <rect transform="rotate(114.88799285888672 -31.513183593750032,580.255615234375) " stroke="#000" id="svg_511" height="1.95949" width="2292.42021" y="579.27583" x="-1177.72328" stroke-opacity="null" fill="#007f3f"/>
  <rect transform="rotate(114.88799285888672 11.039916992187553,612.8796997070311) " stroke="#000" id="svg_512" height="1.95949" width="2292.42021" y="611.89992" x="-1135.17012" stroke-opacity="null" fill="#007f3f"/>
  <rect transform="rotate(114.88799285888672 -83.535400390625,574.811767578125) " stroke="#000" id="svg_513" height="1.95949" width="2292.42021" y="573.83202" x="-1229.74544" stroke-opacity="null" fill="#007f3f"/>
  <rect transform="rotate(114.88799285888672 112.15124511718747,640.8200073242188) " stroke="#000" id="svg_514" height="1.95949" width="2292.42021" y="639.84022" x="-1034.05892" stroke-opacity="null" fill="#007f3f"/>
  <rect transform="rotate(114.88799285888672 154.7042236328125,673.444091796875) " stroke="#000" id="svg_515" height="1.95949" width="2292.42021" y="672.4643" x="-991.50577" stroke-opacity="null" fill="#007f3f"/>
  <rect transform="rotate(114.88799285888672 64.63342285156253,620.9618530273438) " stroke="#000" id="svg_516" height="1.95949" width="2292.42021" y="619.98208" x="-1081.57661" stroke-opacity="null" fill="#007f3f"/>
  <rect transform="rotate(114.88799285888672 265.6748046875,666.1725463867188) " stroke="#000" id="svg_517" height="1.95949" width="2292.42021" y="665.19276" x="-880.53523" stroke-opacity="null" fill="#007f3f"/>
  <rect transform="rotate(114.88799285888672 308.2279052734376,698.796630859375) " stroke="#000" id="svg_518" height="1.95949" width="2292.42021" y="697.81684" x="-837.98208" stroke-opacity="null" fill="#007f3f"/>
  <rect transform="rotate(114.88799285888672 218.15710449218747,646.3143920898438) " stroke="#000" id="svg_519" height="1.95949" width="2292.42021" y="645.33462" x="-928.05292" stroke-opacity="null" fill="#007f3f"/>
  <rect transform="rotate(114.88799285888672 -188.1329345703125,570.725830078125) " stroke="#000" id="svg_520" height="1.95949" width="2292.42021" y="569.7461" x="-1334.34298" stroke-opacity="null" fill="#007f3f"/>
  <rect transform="rotate(114.88799285888672 -146.98828125,601.9414672851562) " stroke="#000" id="svg_521" height="1.95949" width="2292.42021" y="600.96171" x="-1293.1983" stroke-opacity="null" fill="#007f3f"/>
  <rect transform="rotate(114.88799285888672 -235.650634765625,550.86767578125) " stroke="#000" id="svg_522" height="1.95949" width="2292.42021" y="549.88796" x="-1381.86067" stroke-opacity="null" fill="#007f3f"/>
  <rect transform="rotate(114.88799285888672 -31.513183593750032,580.255615234375) " stroke="#000" id="svg_523" height="1.95949" width="2292.42021" y="579.27583" x="-1177.72328" stroke-opacity="null" fill="#007f3f"/>
  <rect transform="rotate(114.88799285888672 11.039916992187553,612.8796997070311) " stroke="#000" id="svg_524" height="1.95949" width="2292.42021" y="611.89992" x="-1135.17012" stroke-opacity="null" fill="#007f3f"/>
  <rect transform="rotate(114.88799285888672 -83.535400390625,574.811767578125) " stroke="#000" id="svg_525" height="1.95949" width="2292.42021" y="573.83202" x="-1229.74544" stroke-opacity="null" fill="#007f3f"/>
  <rect transform="rotate(114.88799285888672 112.15124511718747,640.8200073242188) " stroke="#000" id="svg_526" height="1.95949" width="2292.42021" y="639.84022" x="-1034.05892" stroke-opacity="null" fill="#007f3f"/>
  <rect transform="rotate(114.88799285888672 154.7042236328125,673.444091796875) " stroke="#000" id="svg_527" height="1.95949" width="2292.42021" y="672.4643" x="-991.50577" stroke-opacity="null" fill="#007f3f"/>
  <rect transform="rotate(114.88799285888672 64.63342285156253,620.9618530273438) " stroke="#000" id="svg_528" height="1.95949" width="2292.42021" y="619.98208" x="-1081.57661" stroke-opacity="null" fill="#007f3f"/>
  <rect transform="rotate(114.88799285888672 265.6748046875,666.1725463867188) " stroke="#000" id="svg_529" height="1.95949" width="2292.42021" y="665.19276" x="-880.53523" stroke-opacity="null" fill="#007f3f"/>
  <rect transform="rotate(114.88799285888672 308.2279052734376,698.796630859375) " stroke="#000" id="svg_530" height="1.95949" width="2292.42021" y="697.81684" x="-837.98208" stroke-opacity="null" fill="#007f3f"/>
  <rect transform="rotate(114.88799285888672 218.15710449218747,646.3143920898438) " stroke="#000" id="svg_531" height="1.95949" width="2292.42021" y="645.33462" x="-928.05292" stroke-opacity="null" fill="#007f3f"/>
  <rect transform="rotate(114.88799285888672 383.93579101562494,781.535400390625) " stroke="#000" id="svg_532" height="1.95949" width="2292.42021" y="780.55565" x="-762.27431" stroke-opacity="null" fill="#007f3f"/>
  <rect transform="rotate(114.88799285888672 425.080322265625,812.7510375976562) " stroke="#000" id="svg_533" height="1.95949" width="2292.42021" y="811.77126" x="-721.12963" stroke-opacity="null" fill="#007f3f"/>
  <rect transform="rotate(114.88799285888672 336.41796874999994,761.67724609375) " stroke="#000" id="svg_534" height="1.95949" width="2292.42021" y="760.69752" x="-809.792" stroke-opacity="null" fill="#007f3f"/>
  <rect transform="rotate(114.88799285888672 540.5554199218749,791.0651855468751) " stroke="#000" id="svg_535" height="1.95949" width="2292.42021" y="790.08539" x="-605.65461" stroke-opacity="null" fill="#007f3f"/>
  <rect transform="rotate(114.88799285888672 583.108642578125,823.6892700195312) " stroke="#000" id="svg_536" height="1.95949" width="2292.42021" y="822.70947" x="-563.10146" stroke-opacity="null" fill="#007f3f"/>
  <rect transform="rotate(114.88799285888672 488.533203125,785.6213378906249) " stroke="#000" id="svg_537" height="1.95949" width="2292.42021" y="784.64158" x="-657.67678" stroke-opacity="null" fill="#007f3f"/>
  <rect transform="rotate(114.88799285888672 684.2199707031251,851.6295776367186) " stroke="#000" id="svg_538" height="1.95949" width="2292.42021" y="850.64978" x="-461.99026" stroke-opacity="null" fill="#007f3f"/>
  <rect transform="rotate(114.88799285888672 726.7729492187501,884.2536621093749) " stroke="#000" id="svg_539" height="1.95949" width="2292.42021" y="883.27386" x="-419.43711" stroke-opacity="null" fill="#007f3f"/>
  <rect transform="rotate(114.88799285888672 636.7021484375001,831.7714233398436) " stroke="#000" id="svg_540" height="1.95949" width="2292.42021" y="830.79164" x="-509.50795" stroke-opacity="null" fill="#007f3f"/>
  <rect transform="rotate(114.88799285888672 837.7434082031249,876.9821166992188) " stroke="#000" id="svg_541" height="1.95949" width="2292.42021" y="876.00231" x="-308.46656" stroke-opacity="null" fill="#007f3f"/>
  <rect transform="rotate(114.88799285888672 880.2966308593751,909.6062011718749) " stroke="#000" id="svg_542" height="1.95949" width="2292.42021" y="908.6264" x="-265.91341" stroke-opacity="null" fill="#007f3f"/>
  <rect transform="rotate(114.88799285888672 790.225830078125,857.1239624023438) " stroke="#000" id="svg_543" height="1.95949" width="2292.42021" y="856.14417" x="-355.98425" stroke-opacity="null" fill="#007f3f"/>
  <rect transform="rotate(114.88799285888672 383.93579101562494,781.535400390625) " stroke="#000" id="svg_544" height="1.95949" width="2292.42021" y="780.55565" x="-762.27431" stroke-opacity="null" fill="#007f3f"/>
  <rect transform="rotate(114.88799285888672 425.080322265625,812.7510375976562) " stroke="#000" id="svg_545" height="1.95949" width="2292.42021" y="811.77126" x="-721.12963" stroke-opacity="null" fill="#007f3f"/>
  <rect transform="rotate(114.88799285888672 336.41796874999994,761.67724609375) " stroke="#000" id="svg_546" height="1.95949" width="2292.42021" y="760.69752" x="-809.792" stroke-opacity="null" fill="#007f3f"/>
  <rect transform="rotate(114.88799285888672 540.5554199218749,791.0651855468751) " stroke="#000" id="svg_547" height="1.95949" width="2292.42021" y="790.08539" x="-605.65461" stroke-opacity="null" fill="#007f3f"/>
  <rect transform="rotate(114.88799285888672 583.108642578125,823.6892700195312) " stroke="#000" id="svg_548" height="1.95949" width="2292.42021" y="822.70947" x="-563.10146" stroke-opacity="null" fill="#007f3f"/>
  <rect transform="rotate(114.88799285888672 488.533203125,785.6213378906249) " stroke="#000" id="svg_549" height="1.95949" width="2292.42021" y="784.64158" x="-657.67678" stroke-opacity="null" fill="#007f3f"/>
  <rect transform="rotate(114.88799285888672 684.2199707031251,851.6295776367186) " stroke="#000" id="svg_550" height="1.95949" width="2292.42021" y="850.64978" x="-461.99026" stroke-opacity="null" fill="#007f3f"/>
  <rect transform="rotate(114.88799285888672 726.7729492187501,884.2536621093749) " stroke="#000" id="svg_551" height="1.95949" width="2292.42021" y="883.27386" x="-419.43711" stroke-opacity="null" fill="#007f3f"/>
  <rect transform="rotate(114.88799285888672 636.7021484375001,831.7714233398436) " stroke="#000" id="svg_552" height="1.95949" width="2292.42021" y="830.79164" x="-509.50795" stroke-opacity="null" fill="#007f3f"/>
  <rect transform="rotate(114.88799285888672 837.7434082031249,876.9821166992188) " stroke="#000" id="svg_553" height="1.95949" width="2292.42021" y="876.00231" x="-308.46656" stroke-opacity="null" fill="#007f3f"/>
  <rect transform="rotate(114.88799285888672 880.2966308593751,909.6062011718749) " stroke="#000" id="svg_554" height="1.95949" width="2292.42021" y="908.6264" x="-265.91341" stroke-opacity="null" fill="#007f3f"/>
  <rect transform="rotate(114.88799285888672 790.225830078125,857.1239624023438) " stroke="#000" id="svg_555" height="1.95949" width="2292.42021" y="856.14417" x="-355.98425" stroke-opacity="null" fill="#007f3f"/>
  <rect transform="rotate(114.88799285888672 383.93579101562494,781.535400390625) " stroke="#000" id="svg_556" height="1.95949" width="2292.42021" y="780.55565" x="-762.27431" stroke-opacity="null" fill="#007f3f"/>
  <rect transform="rotate(114.88799285888672 425.080322265625,812.7510375976562) " stroke="#000" id="svg_557" height="1.95949" width="2292.42021" y="811.77126" x="-721.12963" stroke-opacity="null" fill="#007f3f"/>
  <rect transform="rotate(114.88799285888672 336.41796874999994,761.67724609375) " stroke="#000" id="svg_558" height="1.95949" width="2292.42021" y="760.69752" x="-809.792" stroke-opacity="null" fill="#007f3f"/>
  <rect transform="rotate(114.88799285888672 540.5554199218749,791.0651855468751) " stroke="#000" id="svg_559" height="1.95949" width="2292.42021" y="790.08539" x="-605.65461" stroke-opacity="null" fill="#007f3f"/>
  <rect transform="rotate(114.88799285888672 583.108642578125,823.6892700195312) " stroke="#000" id="svg_560" height="1.95949" width="2292.42021" y="822.70947" x="-563.10146" stroke-opacity="null" fill="#007f3f"/>
  <rect transform="rotate(114.88799285888672 488.533203125,785.6213378906249) " stroke="#000" id="svg_561" height="1.95949" width="2292.42021" y="784.64158" x="-657.67678" stroke-opacity="null" fill="#007f3f"/>
  <rect transform="rotate(114.88799285888672 684.2199707031251,851.6295776367186) " stroke="#000" id="svg_562" height="1.95949" width="2292.42021" y="850.64978" x="-461.99026" stroke-opacity="null" fill="#007f3f"/>
  <rect transform="rotate(114.88799285888672 726.7729492187501,884.2536621093749) " stroke="#000" id="svg_563" height="1.95949" width="2292.42021" y="883.27386" x="-419.43711" stroke-opacity="null" fill="#007f3f"/>
  <rect transform="rotate(114.88799285888672 636.7021484375001,831.7714233398436) " stroke="#000" id="svg_564" height="1.95949" width="2292.42021" y="830.79164" x="-509.50795" stroke-opacity="null" fill="#007f3f"/>
  <rect transform="rotate(114.88799285888672 837.7434082031249,876.9821166992188) " stroke="#000" id="svg_565" height="1.95949" width="2292.42021" y="876.00231" x="-308.46656" stroke-opacity="null" fill="#007f3f"/>
  <rect transform="rotate(114.88799285888672 880.2966308593751,909.6062011718749) " stroke="#000" id="svg_566" height="1.95949" width="2292.42021" y="908.6264" x="-265.91341" stroke-opacity="null" fill="#007f3f"/>
  <rect transform="rotate(114.88799285888672 790.225830078125,857.1239624023438) " stroke="#000" id="svg_567" height="1.95949" width="2292.42021" y="856.14417" x="-355.98425" stroke-opacity="null" fill="#007f3f"/>
  <rect transform="rotate(114.88799285888672 383.93579101562494,781.535400390625) " stroke="#000" id="svg_568" height="1.95949" width="2292.42021" y="780.55565" x="-762.27431" stroke-opacity="null" fill="#007f3f"/>
  <rect transform="rotate(114.88799285888672 425.080322265625,812.7510375976562) " stroke="#000" id="svg_569" height="1.95949" width="2292.42021" y="811.77126" x="-721.12963" stroke-opacity="null" fill="#007f3f"/>
  <rect transform="rotate(114.88799285888672 336.41796874999994,761.67724609375) " stroke="#000" id="svg_570" height="1.95949" width="2292.42021" y="760.69752" x="-809.792" stroke-opacity="null" fill="#007f3f"/>
  <rect transform="rotate(114.88799285888672 540.5554199218749,791.0651855468751) " stroke="#000" id="svg_571" height="1.95949" width="2292.42021" y="790.08539" x="-605.65461" stroke-opacity="null" fill="#007f3f"/>
  <rect transform="rotate(114.88799285888672 583.108642578125,823.6892700195312) " stroke="#000" id="svg_572" height="1.95949" width="2292.42021" y="822.70947" x="-563.10146" stroke-opacity="null" fill="#007f3f"/>
  <rect transform="rotate(114.88799285888672 488.533203125,785.6213378906249) " stroke="#000" id="svg_573" height="1.95949" width="2292.42021" y="784.64158" x="-657.67678" stroke-opacity="null" fill="#007f3f"/>
  <rect transform="rotate(114.88799285888672 684.2199707031251,851.6295776367186) " stroke="#000" id="svg_574" height="1.95949" width="2292.42021" y="850.64978" x="-461.99026" stroke-opacity="null" fill="#007f3f"/>
  <rect transform="rotate(114.88799285888672 726.7729492187501,884.2536621093749) " stroke="#000" id="svg_575" height="1.95949" width="2292.42021" y="883.27386" x="-419.43711" stroke-opacity="null" fill="#007f3f"/>
  <rect transform="rotate(114.88799285888672 636.7021484375001,831.7714233398436) " stroke="#000" id="svg_576" height="1.95949" width="2292.42021" y="830.79164" x="-509.50795" stroke-opacity="null" fill="#007f3f"/>
  <rect transform="rotate(114.88799285888672 837.7434082031249,876.9821166992188) " stroke="#000" id="svg_577" height="1.95949" width="2292.42021" y="876.00231" x="-308.46656" stroke-opacity="null" fill="#007f3f"/>
  <rect transform="rotate(114.88799285888672 880.2966308593751,909.6062011718749) " stroke="#000" id="svg_578" height="1.95949" width="2292.42021" y="908.6264" x="-265.91341" stroke-opacity="null" fill="#007f3f"/>
  <rect transform="rotate(114.88799285888672 790.225830078125,857.1239624023438) " stroke="#000" id="svg_579" height="1.95949" width="2292.42021" y="856.14417" x="-355.98425" stroke-opacity="null" fill="#007f3f"/>
  <rect transform="rotate(-179.7838134765625 961.9705200195312,289.2597351074219) " stroke="#000" id="svg_580" height="1.95949" width="2292.42021" y="288.28001" x="-184.23955" stroke-opacity="null" fill="#007f3f"/>
  <rect transform="rotate(69.64604187011719 1054.4013671875002,672.5684204101561) " stroke="#000" id="svg_581" height="1.95949" width="2292.42021" y="671.58872" x="-91.8087" stroke-opacity="null" fill="#007f3f"/>
  <rect transform="rotate(69.64604187011719 1054.4013671875002,672.5684204101561) " stroke="#000" id="svg_582" height="1.95949" width="2292.42021" y="671.58872" x="-91.8087" stroke-opacity="null" fill="#007f3f"/>
  <rect transform="rotate(-179.7838134765625 1030.5213623046873,890.2637329101564) " stroke="#000" id="svg_583" height="1.95949" width="2292.42021" y="889.28399" x="-115.68868" stroke-opacity="null" fill="#007f3f"/>
  <rect transform="rotate(-89.60465240478516 412.4556884765626,613.5463867187501) " stroke="#000" id="svg_584" height="1.95949" width="2292.42021" y="612.56667" x="-733.75441" stroke-opacity="null" fill="#ffffff"/>
  <rect stroke="#000" id="svg_585" height="1658.9286" width="2321.99251" y="-39.82144" x="414.25754" stroke-opacity="null" stroke-width="0" fill="#ffffff"/>
  <rect stroke="#000" id="svg_586" height="322.36842" width="901.40974" y="-38.03574" x="-449.43049" stroke-opacity="null" stroke-width="0" fill="#ffffff"/>
  <rect stroke="#000" transform="rotate(0.4894108772277832 69.81127929686993,1177.800903320312) " id="svg_587" height="581.28386" width="696.64348" y="887.15896" x="-278.51046" stroke-opacity="null" stroke-width="0" fill="#ffffff"/>
 </g>
</svg>