<svg width="2560" height="1440" xmlns="http://www.w3.org/2000/svg">
 <!-- Created with Method Draw - http://github.com/duopixel/Method-Draw/ -->
 <g>
  <title>background</title>
  <rect fill="#ffffff" id="canvas_background" height="1442" width="2562" y="-1" x="-1"/>
  <g display="none" overflow="visible" y="0" x="0" height="100%" width="100%" id="canvasGrid">
   <rect fill="url(#gridpattern)" stroke-width="0" y="0" x="0" height="100%" width="100%"/>
  </g>
 </g>
 <g>
  <title>Layer 1</title>
  <rect stroke="#000" transform="rotate(35.222049713134766 886.6660156249998,421.998779296875) " id="svg_153" height="10.45296" width="1926.93147" y="416.77229" x="-76.79966" stroke-opacity="null" stroke-width="0" fill="#35ffff"/>
  <rect stroke="#000" transform="rotate(35.222049713134766 876.8299560546876,448.228271484375) " id="svg_154" height="10.45296" width="1926.93147" y="443.00179" x="-86.63572" stroke-opacity="null" stroke-width="0" fill="#35ffff"/>
  <rect stroke="#000" transform="rotate(35.222049713134766 929.2889404296875,389.21188354492193) " id="svg_155" height="10.45296" width="1926.93147" y="383.98542" x="-34.17673" stroke-opacity="null" stroke-width="0" fill="#35ffff"/>
  <rect stroke="#000" transform="rotate(35.222049713134766 919.4528808593751,415.44140624999994) " id="svg_156" height="10.45296" width="1926.93147" y="410.21492" x="-44.01279" stroke-opacity="null" stroke-width="0" fill="#35ffff"/>
  <rect stroke="#000" transform="rotate(35.222049713134766 975.1905517578124,361.3430480957031) " id="svg_157" height="10.45296" width="1926.93147" y="356.11658" x="11.72489" stroke-opacity="null" stroke-width="0" fill="#35ffff"/>
  <rect stroke="#000" transform="rotate(35.222049713134766 965.3544921874999,387.5725708007812) " id="svg_158" height="10.45296" width="1926.93147" y="382.34608" x="1.88883" stroke-opacity="null" stroke-width="0" fill="#35ffff"/>
  <rect stroke="#000" transform="rotate(35.222049713134766 773.5513305664059,525.2774047851565) " id="svg_159" height="10.45296" width="1926.93147" y="520.05093" x="-189.91436" stroke-opacity="null" stroke-width="0" fill="#35ffff"/>
  <rect stroke="#000" transform="rotate(35.222049713134766 763.7152709960931,551.5068969726564) " id="svg_160" height="10.45296" width="1926.93147" y="546.28043" x="-199.75042" stroke-opacity="null" stroke-width="0" fill="#35ffff"/>
  <rect stroke="#000" transform="rotate(35.222049713134766 816.1742553710938,492.4905395507812) " id="svg_161" height="10.45296" width="1926.93147" y="487.26406" x="-147.29143" stroke-opacity="null" stroke-width="0" fill="#35ffff"/>
  <rect stroke="#000" transform="rotate(35.222049713134766 806.3381958007812,518.7200317382812) " id="svg_162" height="10.45296" width="1926.93147" y="513.49356" x="-157.12749" stroke-opacity="null" stroke-width="0" fill="#35ffff"/>
  <rect stroke="#000" transform="rotate(35.222049713134766 862.0758666992186,464.6217041015625) " id="svg_163" height="10.45296" width="1926.93147" y="459.39522" x="-101.38981" stroke-opacity="null" stroke-width="0" fill="#35ffff"/>
  <rect stroke="#000" transform="rotate(35.222049713134766 852.2398071289061,490.8511962890626) " id="svg_164" height="10.45296" width="1926.93147" y="485.62472" x="-111.22587" stroke-opacity="null" stroke-width="0" fill="#35ffff"/>
  <rect stroke="#000" transform="rotate(35.222049713134766 1139.1250000000002,235.11360168457034) " id="svg_165" height="10.45296" width="1926.93147" y="229.88713" x="175.65924" stroke-opacity="null" stroke-width="0" fill="#35ffff"/>
  <rect stroke="#000" transform="rotate(35.222049713134766 1129.2889404296873,261.34307861328125) " id="svg_166" height="10.45296" width="1926.93147" y="256.11663" x="165.82318" stroke-opacity="null" stroke-width="0" fill="#35ffff"/>
  <rect stroke="#000" transform="rotate(35.222049713134766 1181.7479248046875,202.32673645019534) " id="svg_167" height="10.45296" width="1926.93147" y="197.10026" x="218.28218" stroke-opacity="null" stroke-width="0" fill="#35ffff"/>
  <rect stroke="#000" transform="rotate(35.222049713134766 1171.911865234375,228.5562286376953) " id="svg_168" height="10.45296" width="1926.93147" y="223.32976" x="208.44612" stroke-opacity="null" stroke-width="0" fill="#35ffff"/>
  <rect stroke="#000" transform="rotate(35.222049713134766 1227.6495361328123,174.45790100097653) " id="svg_169" height="10.45296" width="1926.93147" y="169.23142" x="264.1838" stroke-opacity="null" stroke-width="0" fill="#35ffff"/>
  <rect stroke="#000" transform="rotate(35.222049713134766 1217.8134765625,200.68739318847662) " id="svg_170" height="10.45296" width="1926.93147" y="195.46092" x="254.34774" stroke-opacity="null" stroke-width="0" fill="#35ffff"/>
  <rect stroke="#000" transform="rotate(35.222049713134766 1026.01025390625,338.3922119140625) " id="svg_171" height="10.45296" width="1926.93147" y="333.16577" x="62.54454" stroke-opacity="null" stroke-width="0" fill="#35ffff"/>
  <rect stroke="#000" transform="rotate(35.222049713134766 1016.1741943359374,364.62173461914057) " id="svg_172" height="10.45296" width="1926.93147" y="359.39527" x="52.70848" stroke-opacity="null" stroke-width="0" fill="#35ffff"/>
  <rect stroke="#000" transform="rotate(35.222049713134766 1068.6331787109377,305.60534667968756) " id="svg_173" height="10.45296" width="1926.93147" y="300.3789" x="105.16748" stroke-opacity="null" stroke-width="0" fill="#35ffff"/>
  <rect stroke="#000" transform="rotate(35.222049713134766 1058.7971191406248,331.83483886718744) " id="svg_174" height="10.45296" width="1926.93147" y="326.6084" x="95.33142" stroke-opacity="null" stroke-width="0" fill="#35ffff"/>
  <rect stroke="#000" transform="rotate(35.222049713134766 1114.5347900390623,277.73654174804676) " id="svg_175" height="10.45296" width="1926.93147" y="272.51006" x="151.0691" stroke-opacity="null" stroke-width="0" fill="#35ffff"/>
  <rect stroke="#000" transform="rotate(35.222049713134766 1104.69873046875,303.9660339355468) " id="svg_176" height="10.45296" width="1926.93147" y="298.73956" x="141.23304" stroke-opacity="null" stroke-width="0" fill="#35ffff"/>
  <rect stroke="#000" transform="rotate(35.222049713134766 412.89575195312494,787.5723876953125) " id="svg_201" height="10.45296" width="1926.93147" y="782.3459" x="-550.56993" stroke-opacity="null" stroke-width="0" fill="#35ffff"/>
  <rect stroke="#000" transform="rotate(35.222049713134766 403.0596923828118,813.8018798828126) " id="svg_202" height="10.45296" width="1926.93147" y="808.5754" x="-560.40599" stroke-opacity="null" stroke-width="0" fill="#35ffff"/>
  <rect stroke="#000" transform="rotate(35.222049713134766 455.5186767578125,754.7855224609374) " id="svg_203" height="10.45296" width="1926.93147" y="749.55903" x="-507.94699" stroke-opacity="null" stroke-width="0" fill="#35ffff"/>
  <rect stroke="#000" transform="rotate(35.222049713134766 445.68261718750034,781.0150146484373) " id="svg_204" height="10.45296" width="1926.93147" y="775.78853" x="-517.78305" stroke-opacity="null" stroke-width="0" fill="#35ffff"/>
  <rect stroke="#000" transform="rotate(35.222049713134766 501.4202880859374,726.9166259765625) " id="svg_205" height="10.45296" width="1926.93147" y="721.69019" x="-462.04538" stroke-opacity="null" stroke-width="0" fill="#35ffff"/>
  <rect stroke="#000" transform="rotate(35.222049713134766 491.5842285156249,753.1461791992188) " id="svg_206" height="10.45296" width="1926.93147" y="747.91969" x="-471.88144" stroke-opacity="null" stroke-width="0" fill="#35ffff"/>
  <rect stroke="#000" transform="rotate(35.222049713134766 299.78106689453136,890.8510131835938) " id="svg_207" height="10.45296" width="1926.93147" y="885.62454" x="-663.68463" stroke-opacity="null" stroke-width="0" fill="#35ffff"/>
  <rect stroke="#000" transform="rotate(35.222049713134766 289.9450073242192,917.0805053710936) " id="svg_208" height="10.45296" width="1926.93147" y="911.85404" x="-673.52069" stroke-opacity="null" stroke-width="0" fill="#35ffff"/>
  <rect stroke="#000" transform="rotate(35.222049713134766 342.403991699219,858.0641479492186) " id="svg_209" height="10.45296" width="1926.93147" y="852.83767" x="-621.0617" stroke-opacity="null" stroke-width="0" fill="#35ffff"/>
  <rect stroke="#000" transform="rotate(35.222049713134766 332.56793212890614,884.2936401367189) " id="svg_210" height="10.45296" width="1926.93147" y="879.06717" x="-630.89775" stroke-opacity="null" stroke-width="0" fill="#35ffff"/>
  <rect stroke="#000" transform="rotate(35.222049713134766 388.30560302734386,830.1953125) " id="svg_211" height="10.45296" width="1926.93147" y="824.96883" x="-575.16008" stroke-opacity="null" stroke-width="0" fill="#35ffff"/>
  <rect stroke="#000" transform="rotate(35.222049713134766 378.469543457031,856.4248046875) " id="svg_212" height="10.45296" width="1926.93147" y="851.19833" x="-584.99614" stroke-opacity="null" stroke-width="0" fill="#35ffff"/>
  <rect stroke="#000" transform="rotate(35.222049713134766 665.354736328125,600.6871948242188) " id="svg_213" height="10.45296" width="1926.93147" y="595.46073" x="-298.11102" stroke-opacity="null" stroke-width="0" fill="#35ffff"/>
  <rect stroke="#000" transform="rotate(35.222049713134766 655.5186767578125,626.9166870117189) " id="svg_214" height="10.45296" width="1926.93147" y="621.69023" x="-307.94708" stroke-opacity="null" stroke-width="0" fill="#35ffff"/>
  <rect stroke="#000" transform="rotate(35.222049713134766 707.9776611328123,567.9003295898439) " id="svg_215" height="10.45296" width="1926.93147" y="562.67387" x="-255.48809" stroke-opacity="null" stroke-width="0" fill="#35ffff"/>
  <rect stroke="#000" transform="rotate(35.222049713134766 698.1416015625003,594.1298217773436) " id="svg_216" height="10.45296" width="1926.93147" y="588.90337" x="-265.32415" stroke-opacity="null" stroke-width="0" fill="#35ffff"/>
  <rect stroke="#000" transform="rotate(35.222049713134766 753.8792724609372,540.0314941406251) " id="svg_217" height="10.45296" width="1926.93147" y="534.80503" x="-209.58647" stroke-opacity="null" stroke-width="0" fill="#35ffff"/>
  <rect stroke="#000" transform="rotate(35.222049713134766 744.0432128906252,566.2609863281249) " id="svg_218" height="10.45296" width="1926.93147" y="561.03453" x="-219.42253" stroke-opacity="null" stroke-width="0" fill="#35ffff"/>
  <rect stroke="#000" transform="rotate(35.222049713134766 552.2399902343745,703.9658203125001) " id="svg_219" height="10.45296" width="1926.93147" y="698.73938" x="-411.22572" stroke-opacity="null" stroke-width="0" fill="#35ffff"/>
  <rect stroke="#000" transform="rotate(35.222049713134766 542.403930664062,730.1953125) " id="svg_220" height="10.45296" width="1926.93147" y="724.96888" x="-421.06178" stroke-opacity="null" stroke-width="0" fill="#35ffff"/>
  <rect stroke="#000" transform="rotate(35.222049713134766 594.8629150390622,671.1789550781251) " id="svg_221" height="10.45296" width="1926.93147" y="665.95251" x="-368.60279" stroke-opacity="null" stroke-width="0" fill="#35ffff"/>
  <rect stroke="#000" transform="rotate(35.222049713134766 585.0268554687503,697.4084472656249) " id="svg_222" height="10.45296" width="1926.93147" y="692.18201" x="-378.43885" stroke-opacity="null" stroke-width="0" fill="#35ffff"/>
  <rect stroke="#000" transform="rotate(35.222049713134766 640.7645263671876,643.3101196289062) " id="svg_223" height="10.45296" width="1926.93147" y="638.08367" x="-322.70117" stroke-opacity="null" stroke-width="0" fill="#35ffff"/>
  <rect stroke="#000" transform="rotate(35.222049713134766 630.9284667968749,669.5396118164062) " id="svg_224" height="10.45296" width="1926.93147" y="664.31317" x="-332.53723" stroke-opacity="null" stroke-width="0" fill="#35ffff"/>
  <rect stroke="#000" transform="rotate(35.222049713134766 137.48602294921912,1330.1950683593748) " id="svg_225" height="10.45296" width="1926.93147" y="1324.96858" x="-825.97966" stroke-opacity="null" stroke-width="0" fill="#35ffff"/>
  <rect stroke="#000" transform="rotate(35.222049713134766 127.6499633789057,1356.4245605468752) " id="svg_226" height="10.45296" width="1926.93147" y="1351.19808" x="-835.81572" stroke-opacity="null" stroke-width="0" fill="#35ffff"/>
  <rect stroke="#000" transform="rotate(35.222049713134766 180.10894775390608,1297.408203125) " id="svg_227" height="10.45296" width="1926.93147" y="1292.18171" x="-783.35672" stroke-opacity="null" stroke-width="0" fill="#35ffff"/>
  <rect stroke="#000" transform="rotate(35.222049713134766 170.27288818359327,1323.6376953125002) " id="svg_228" height="10.45296" width="1926.93147" y="1318.41121" x="-793.19278" stroke-opacity="null" stroke-width="0" fill="#35ffff"/>
  <rect stroke="#000" transform="rotate(35.222049713134766 226.01055908203065,1269.5393066406252) " id="svg_229" height="10.45296" width="1926.93147" y="1264.31287" x="-737.4551" stroke-opacity="null" stroke-width="0" fill="#35ffff"/>
  <rect stroke="#000" transform="rotate(35.222049713134766 216.17449951171972,1295.7687988281248) " id="svg_230" height="10.45296" width="1926.93147" y="1290.54237" x="-747.29116" stroke-opacity="null" stroke-width="0" fill="#35ffff"/>
  <rect stroke="#000" transform="rotate(35.222049713134766 24.37133789062526,1433.4736328125) " id="svg_231" height="10.45296" width="1926.93147" y="1428.24722" x="-939.09436" stroke-opacity="null" stroke-width="0" fill="#35ffff"/>
  <rect stroke="#000" transform="rotate(35.222049713134766 14.535278320313076,1459.7031249999998) " id="svg_232" height="10.45296" width="1926.93147" y="1454.47672" x="-948.93042" stroke-opacity="null" stroke-width="0" fill="#35ffff"/>
  <rect stroke="#000" transform="rotate(35.222049713134766 66.9942626953116,1400.6867675781252) " id="svg_233" height="10.45296" width="1926.93147" y="1395.46035" x="-896.47142" stroke-opacity="null" stroke-width="0" fill="#35ffff"/>
  <rect stroke="#000" transform="rotate(35.222049713134766 57.15820312500004,1426.916259765625) " id="svg_234" height="10.45296" width="1926.93147" y="1421.68985" x="-906.30748" stroke-opacity="null" stroke-width="0" fill="#35ffff"/>
  <rect stroke="#000" transform="rotate(35.222049713134766 112.89587402343741,1372.8179931640625) " id="svg_235" height="10.45296" width="1926.93147" y="1367.59151" x="-850.56981" stroke-opacity="null" stroke-width="0" fill="#35ffff"/>
  <rect stroke="#000" transform="rotate(35.222049713134766 103.0598144531246,1399.0474853515627) " id="svg_236" height="10.45296" width="1926.93147" y="1393.82101" x="-860.40586" stroke-opacity="null" stroke-width="0" fill="#35ffff"/>
  <rect stroke="#000" transform="rotate(35.222049713134766 389.94500732421886,1143.3099365234375) " id="svg_237" height="10.45296" width="1926.93147" y="1138.08342" x="-573.52075" stroke-opacity="null" stroke-width="0" fill="#35ffff"/>
  <rect stroke="#000" transform="rotate(35.222049713134766 380.1089477539061,1169.5393066406252) " id="svg_238" height="10.45296" width="1926.93147" y="1164.31292" x="-583.35681" stroke-opacity="null" stroke-width="0" fill="#35ffff"/>
  <rect stroke="#000" transform="rotate(35.222049713134766 432.56793212890585,1110.5230712890627) " id="svg_239" height="10.45296" width="1926.93147" y="1105.29655" x="-530.89782" stroke-opacity="null" stroke-width="0" fill="#35ffff"/>
  <rect stroke="#000" transform="rotate(35.222049713134766 422.73187255859426,1136.7525634765623) " id="svg_240" height="10.45296" width="1926.93147" y="1131.52605" x="-540.73388" stroke-opacity="null" stroke-width="0" fill="#35ffff"/>
  <rect stroke="#000" transform="rotate(35.222049713134766 478.469543457031,1082.6541748046877) " id="svg_241" height="10.45296" width="1926.93147" y="1077.42771" x="-484.9962" stroke-opacity="null" stroke-width="0" fill="#35ffff"/>
  <rect stroke="#000" transform="rotate(35.222049713134766 468.6334838867188,1108.8836669921875) " id="svg_242" height="10.45296" width="1926.93147" y="1103.65721" x="-494.83226" stroke-opacity="null" stroke-width="0" fill="#35ffff"/>
  <rect stroke="#000" transform="rotate(35.222049713134766 276.8302612304688,1246.5885009765625) " id="svg_243" height="10.45296" width="1926.93147" y="1241.36206" x="-686.63545" stroke-opacity="null" stroke-width="0" fill="#35ffff"/>
  <rect stroke="#000" transform="rotate(35.222049713134766 266.99420166015597,1272.8179931640625) " id="svg_244" height="10.45296" width="1926.93147" y="1267.59156" x="-696.47151" stroke-opacity="null" stroke-width="0" fill="#35ffff"/>
  <rect stroke="#000" transform="rotate(35.222049713134766 319.45318603515636,1213.8016357421875) " id="svg_245" height="10.45296" width="1926.93147" y="1208.57519" x="-644.01252" stroke-opacity="null" stroke-width="0" fill="#35ffff"/>
  <rect stroke="#000" transform="rotate(35.222049713134766 309.6171264648436,1240.0311279296875) " id="svg_246" height="10.45296" width="1926.93147" y="1234.80469" x="-653.84858" stroke-opacity="null" stroke-width="0" fill="#35ffff"/>
  <rect stroke="#000" transform="rotate(35.222049713134766 365.35479736328153,1185.9328613281248) " id="svg_247" height="10.45296" width="1926.93147" y="1180.70635" x="-598.1109" stroke-opacity="null" stroke-width="0" fill="#35ffff"/>
  <rect stroke="#000" transform="rotate(35.222049713134766 355.51873779296875,1212.162353515625) " id="svg_248" height="10.45296" width="1926.93147" y="1206.93585" x="-607.94696" stroke-opacity="null" stroke-width="0" fill="#35ffff"/>
  <rect stroke="#000" id="svg_249" height="850.81922" width="1560.65494" y="-21.90542" x="782.45938" stroke-opacity="null" stroke-width="0" fill="#ffffff"/>
  <rect stroke="#000" id="svg_250" height="850.81922" width="2222.94978" y="819.0778" x="-292.95003" stroke-opacity="null" stroke-width="0" fill="#ffffff"/>
  <rect transform="rotate(62.79030990600586 1791.4753417968748,819.8974609374999) " stroke="#000" id="svg_271" height="4.91803" width="1801.63883" y="817.43847" x="890.65603" stroke-opacity="null" stroke-width="0" fill="#00ff00"/>
  <rect transform="rotate(62.79030990600586 1791.4753417968748,819.8974609374999) " stroke="#000" id="svg_272" height="4.91803" width="1801.63883" y="817.43847" x="890.65603" stroke-opacity="null" stroke-width="0" fill="#00ff00"/>
  <rect transform="rotate(62.79030990600586 1791.4753417968748,819.8974609374999) " stroke="#000" id="svg_273" height="4.91803" width="1801.63883" y="817.43847" x="890.65603" stroke-opacity="null" stroke-width="0" fill="#00ff00"/>
  <rect transform="rotate(62.79030990600586 1855.4097900390623,777.2745361328125) " stroke="#000" id="svg_274" height="4.91803" width="1801.63883" y="774.81554" x="954.59043" stroke-opacity="null" stroke-width="0" fill="#00ff00"/>
  <rect transform="rotate(62.79030990600586 1945.5736083984373,785.471252441406) " stroke="#000" id="svg_275" height="4.91803" width="1801.63883" y="783.01226" x="1044.75433" stroke-opacity="null" stroke-width="0" fill="#00ff00"/>
  <rect transform="rotate(62.79030990600586 1989.8359375000002,711.7008056640623) " stroke="#000" id="svg_276" height="4.91803" width="1801.63883" y="709.2418" x="1089.0166" stroke-opacity="null" stroke-width="0" fill="#00ff00"/>
  <rect transform="rotate(62.79030990600586 2047.2128906250002,669.0778198242184) " stroke="#000" id="svg_277" height="4.91803" width="1801.63883" y="666.61886" x="1146.39363" stroke-opacity="null" stroke-width="0" fill="#00ff00"/>
  <rect transform="rotate(62.79030990600586 2122.622802734375,655.9630737304688) " stroke="#000" id="svg_278" height="4.91803" width="1801.63883" y="653.50412" x="1221.80343" stroke-opacity="null" stroke-width="0" fill="#00ff00"/>
  <rect transform="rotate(62.79030990600586 2178.3603515625005,614.9794921874998) " stroke="#000" id="svg_279" height="4.91803" width="1801.63883" y="612.52054" x="1277.5411" stroke-opacity="null" stroke-width="0" fill="#00ff00"/>
  <rect transform="rotate(62.79030990600586 2181.63916015625,464.15991210937494) " stroke="#000" id="svg_280" height="4.91803" width="1801.63883" y="461.70092" x="1280.81979" stroke-opacity="null" stroke-width="0" fill="#00ff00"/>
  <rect transform="rotate(62.79030990600586 2283.2783203124995,511.7008666992187) " stroke="#000" id="svg_281" height="4.91803" width="1801.63883" y="509.24188" x="1382.4591" stroke-opacity="null" stroke-width="0" fill="#00ff00"/>
  <rect transform="rotate(62.79030990600586 2232.4587402343745,273.99609374999983) " stroke="#000" id="svg_282" height="4.91803" width="1801.63883" y="271.53711" x="1331.63943" stroke-opacity="null" stroke-width="0" fill="#00ff00"/>
  <rect transform="rotate(62.79030990600586 2298.0324707031255,259.24200439453097) " stroke="#000" id="svg_283" height="4.91803" width="1801.63883" y="256.78302" x="1397.21319" stroke-opacity="null" stroke-width="0" fill="#00ff00"/>
  <rect transform="rotate(62.79030990600586 2329.179931640625,180.55346679687503) " stroke="#000" id="svg_284" height="4.91803" width="1801.63883" y="178.09448" x="1428.36068" stroke-opacity="null" stroke-width="0" fill="#00ff00"/>
  <rect transform="rotate(62.79030990600586 2350.4914550781245,64.16009521484375) " stroke="#000" id="svg_285" height="4.91803" width="1801.63883" y="61.70111" x="1449.67215" stroke-opacity="null" stroke-width="0" fill="#00ff00"/>
  <rect transform="rotate(62.79030990600586 2407.8686523437495,16.619140624999872) " stroke="#000" id="svg_286" height="4.91803" width="1801.63883" y="14.16015" x="1507.04922" stroke-opacity="null" stroke-width="0" fill="#00ff00"/>
  <rect transform="rotate(62.79030990600586 1670.1639404296873,744.4876708984374) " stroke="#000" id="svg_287" height="4.91803" width="1801.63883" y="742.02867" x="769.34462" stroke-opacity="null" stroke-width="0" fill="#00ff00"/>
  <rect transform="rotate(62.79030990600586 1586.557373046875,747.7663574218749) " stroke="#000" id="svg_288" height="4.91803" width="1801.63883" y="745.30736" x="685.73809" stroke-opacity="null" stroke-width="0" fill="#00ff00"/>
  <rect transform="rotate(62.79030990600586 1493.11474609375,736.2909545898435) " stroke="#000" id="svg_289" height="4.91803" width="1801.63883" y="733.83195" x="592.2955" stroke-opacity="null" stroke-width="0" fill="#00ff00"/>
  <rect transform="rotate(-73.69965362548828 2657.8681640625005,892.0285644531253) " stroke="#000" id="svg_291" height="4.91803" width="2055.73677" y="889.56955" x="1629.99991" fill-opacity="null" stroke-opacity="null" stroke-width="0" fill="#00ff00"/>
  <rect transform="rotate(-73.69965362548828 2597.2124023437495,885.4711914062499) " stroke="#000" id="svg_293" height="4.91803" width="2055.73677" y="883.01218" x="1569.34421" fill-opacity="null" stroke-opacity="null" stroke-width="0" fill="#00ff00"/>
  <rect transform="rotate(-73.69965362548828 2531.6386718750005,854.323669433594) " stroke="#000" id="svg_294" height="4.91803" width="2055.73677" y="851.86465" x="1503.77046" fill-opacity="null" stroke-opacity="null" stroke-width="0" fill="#00ff00"/>
  <rect transform="rotate(-73.69965362548828 2470.983154296875,829.7335205078124) " stroke="#000" id="svg_295" height="4.91803" width="2055.73677" y="827.2745" x="1443.11475" fill-opacity="null" stroke-opacity="null" stroke-width="0" fill="#00ff00"/>
  <rect transform="rotate(-73.69965362548828 2413.6059570312505,798.5859985351567) " stroke="#000" id="svg_296" height="4.91803" width="2055.73677" y="796.12697" x="1385.73772" fill-opacity="null" stroke-opacity="null" stroke-width="0" fill="#00ff00"/>
  <rect transform="rotate(-73.69965362548828 2349.6716308593755,773.9958496093752) " stroke="#000" id="svg_297" height="4.91803" width="2055.73677" y="771.53682" x="1321.80332" fill-opacity="null" stroke-opacity="null" stroke-width="0" fill="#00ff00"/>
  <rect transform="rotate(-73.69965362548828 2289.015869140625,767.4384765625002) " stroke="#000" id="svg_298" height="4.91803" width="2055.73677" y="764.97945" x="1261.14761" fill-opacity="null" stroke-opacity="null" stroke-width="0" fill="#00ff00"/>
  <rect transform="rotate(-73.69965362548828 2223.442138671875,736.2909545898439) " stroke="#000" id="svg_299" height="4.91803" width="2055.73677" y="733.83192" x="1195.57387" fill-opacity="null" stroke-opacity="null" stroke-width="0" fill="#00ff00"/>
  <rect transform="rotate(-73.69965362548828 2162.78662109375,711.7008056640626) " stroke="#000" id="svg_300" height="4.91803" width="2055.73677" y="709.24177" x="1134.91816" fill-opacity="null" stroke-opacity="null" stroke-width="0" fill="#00ff00"/>
  <rect transform="rotate(-73.69965362548828 2105.409423828125,680.5532836914064) " stroke="#000" id="svg_301" height="4.91803" width="2055.73677" y="678.09424" x="1077.54113" fill-opacity="null" stroke-opacity="null" stroke-width="0" fill="#00ff00"/>
  <rect transform="rotate(-73.69965362548828 2657.8681640625005,892.0285644531253) " stroke="#000" id="svg_302" height="4.91803" width="2055.73677" y="889.56955" x="1629.99991" fill-opacity="null" stroke-opacity="null" stroke-width="0" fill="#00ff00"/>
  <rect transform="rotate(-73.69965362548828 2597.2124023437495,885.4711914062499) " stroke="#000" id="svg_303" height="4.91803" width="2055.73677" y="883.01218" x="1569.34421" fill-opacity="null" stroke-opacity="null" stroke-width="0" fill="#00ff00"/>
  <rect transform="rotate(-73.69965362548828 2531.6386718750005,854.323669433594) " stroke="#000" id="svg_304" height="4.91803" width="2055.73677" y="851.86465" x="1503.77046" fill-opacity="null" stroke-opacity="null" stroke-width="0" fill="#00ff00"/>
  <rect transform="rotate(-73.69965362548828 2470.983154296875,829.7335205078124) " stroke="#000" id="svg_305" height="4.91803" width="2055.73677" y="827.2745" x="1443.11475" fill-opacity="null" stroke-opacity="null" stroke-width="0" fill="#00ff00"/>
  <rect transform="rotate(-73.69965362548828 2413.6059570312505,798.5859985351567) " stroke="#000" id="svg_306" height="4.91803" width="2055.73677" y="796.12697" x="1385.73772" fill-opacity="null" stroke-opacity="null" stroke-width="0" fill="#00ff00"/>
  <rect transform="rotate(-73.69965362548828 2061.147216796875,641.2090454101564) " stroke="#000" id="svg_307" height="4.91803" width="2055.73677" y="638.74999" x="1033.27885" stroke-opacity="null" stroke-width="0" fill="#ffffff"/>
  <rect transform="rotate(-73.69965362548828 2000.4914550781255,634.6516723632816) " stroke="#000" id="svg_308" height="4.91803" width="2055.73677" y="632.19262" x="972.62314" stroke-opacity="null" stroke-width="0" fill="#ffffff"/>
  <rect transform="rotate(-73.69965362548828 1934.9177246093752,603.5041503906252) " stroke="#000" id="svg_309" height="4.91803" width="2055.73677" y="601.04509" x="907.04939" stroke-opacity="null" stroke-width="0" fill="#ffffff"/>
  <rect transform="rotate(-73.69965362548828 1874.2620849609373,578.9140014648436) " stroke="#000" id="svg_310" height="4.91803" width="2055.73677" y="576.45493" x="846.39368" stroke-opacity="null" stroke-width="0" fill="#ffffff"/>
  <rect transform="rotate(-73.69965362548828 1816.885009765625,547.7664794921875) " stroke="#000" id="svg_311" height="4.91803" width="2055.73677" y="545.30741" x="789.01665" stroke-opacity="null" stroke-width="0" fill="#ffffff"/>
  <rect stroke="#000" id="svg_314" height="1716.39266" width="1118.03228" y="-54.6923" x="1075.90178" stroke-opacity="null" stroke-width="0" fill="#ffffff"/>
  <rect id="svg_315" height="424.58997" width="622.95054" y="-98.95457" x="2138.19638" fill-opacity="null" stroke-opacity="null" stroke-width="0" stroke="#000" fill="#ffffff"/>
  <rect id="svg_316" height="0" width="1.63934" y="723.99587" x="2820.16329" fill-opacity="null" stroke-opacity="null" stroke-width="0" stroke="#000" fill="#ffffff"/>
 </g>
</svg>