<svg width="2560" height="1440" xmlns="http://www.w3.org/2000/svg">
 <!-- Created with Method Draw - http://github.com/duopixel/Method-Draw/ -->
 <g>
  <title>background</title>
  <rect fill="#ffffff" id="canvas_background" height="1442" width="2562" y="-1" x="-1"/>
  <g display="none" overflow="visible" y="0" x="0" height="100%" width="100%" id="canvasGrid">
   <rect fill="url(#gridpattern)" stroke-width="0" y="0" x="0" height="100%" width="100%"/>
  </g>
 </g>
 <g>
  <title>Layer 1</title>
  <rect transform="rotate(50.529571533203125 627.9175415039065,741.0231323242186) " id="svg_13" height="14.58335" width="3231.2528" y="733.73143" x="-987.70878" stroke-opacity="null" stroke-width="0" stroke="#000" fill="#00ffd8"/>
  <rect transform="rotate(50.529571533203125 604.9667358398438,767.2526245117188) " id="svg_14" height="14.58335" width="3231.2528" y="759.96093" x="-1010.65959" stroke-opacity="null" stroke-width="0" stroke="#000" fill="#00ffd8"/>
  <rect transform="rotate(50.529571533203125 568.9012451171873,772.170654296875) " id="svg_15" height="14.58335" width="3231.2528" y="764.87896" x="-1046.72515" stroke-opacity="null" stroke-width="0" stroke="#000" fill="#00ffd8"/>
  <rect transform="rotate(50.529571533203125 545.9504394531252,798.400146484375) " id="svg_16" height="14.58335" width="3231.2528" y="791.10846" x="-1069.67596" stroke-opacity="null" stroke-width="0" stroke="#000" fill="#00ffd8"/>
  <rect transform="rotate(50.529571533203125 542.6717529296875,839.3837280273438) " id="svg_17" height="14.58335" width="3231.2528" y="832.09204" x="-1072.95465" stroke-opacity="null" stroke-width="0" stroke="#000" fill="#00ffd8"/>
  <rect transform="rotate(50.529571533203125 519.7208251953124,865.6132202148438) " id="svg_18" height="14.58335" width="3231.2528" y="858.32154" x="-1095.90546" stroke-opacity="null" stroke-width="0" stroke="#000" fill="#00ffd8"/>
  <rect transform="rotate(50.529571533203125 457.4257812500001,842.6624145507812) " id="svg_19" height="14.58335" width="3231.2528" y="835.37073" x="-1158.20051" stroke-opacity="null" stroke-width="0" stroke="#000" fill="#00ffd8"/>
  <rect transform="rotate(50.529571533203125 434.4749755859377,868.891906738281) " id="svg_20" height="14.58335" width="3231.2528" y="861.60023" x="-1181.15132" stroke-opacity="null" stroke-width="0" stroke="#000" fill="#00ffd8"/>
  <rect transform="rotate(50.529571533203125 398.4094238281252,873.8099365234374) " id="svg_21" height="14.58335" width="3231.2528" y="866.51826" x="-1217.21688" stroke-opacity="null" stroke-width="0" stroke="#000" fill="#00ffd8"/>
  <rect transform="rotate(50.529571533203125 375.4586181640628,900.0394287109374) " id="svg_22" height="14.58335" width="3231.2528" y="892.74775" x="-1240.16769" stroke-opacity="null" stroke-width="0" stroke="#000" fill="#00ffd8"/>
  <rect transform="rotate(50.529571533203125 372.17993164062534,941.0230102539061) " id="svg_23" height="14.58335" width="3231.2528" y="933.73134" x="-1243.44638" stroke-opacity="null" stroke-width="0" stroke="#000" fill="#00ffd8"/>
  <rect transform="rotate(50.529571533203125 349.22912597656295,967.2525024414061) " id="svg_24" height="14.58335" width="3231.2528" y="959.96084" x="-1266.39719" stroke-opacity="null" stroke-width="0" stroke="#000" fill="#00ffd8"/>
  <rect transform="rotate(50.529571533203125 314.80297851562506,970.5311889648436) " id="svg_25" height="14.58335" width="3231.2528" y="963.23952" x="-1300.82341" stroke-opacity="null" stroke-width="0" stroke="#000" fill="#00ffd8"/>
  <rect transform="rotate(50.529571533203125 291.85217285156295,996.7606811523436) " id="svg_26" height="14.58335" width="3231.2528" y="989.46902" x="-1323.77422" stroke-opacity="null" stroke-width="0" stroke="#000" fill="#00ffd8"/>
  <rect transform="rotate(50.529571533203125 255.78662109375014,1001.6787109374999) " id="svg_27" height="14.58335" width="3231.2528" y="994.38705" x="-1359.83977" stroke-opacity="null" stroke-width="0" stroke="#000" fill="#00ffd8"/>
  <rect transform="rotate(50.529571533203125 232.83581542968773,1027.9082031249998) " id="svg_28" height="14.58335" width="3231.2528" y="1020.61654" x="-1382.79058" stroke-opacity="null" stroke-width="0" stroke="#000" fill="#00ffd8"/>
  <rect transform="rotate(50.529571533203125 229.55712890624997,1068.8917236328125) " id="svg_29" height="14.58335" width="3231.2528" y="1061.60013" x="-1386.06927" stroke-opacity="null" stroke-width="0" stroke="#000" fill="#00ffd8"/>
  <rect transform="rotate(50.529571533203125 206.60620117187497,1095.1212158203125) " id="svg_30" height="14.58335" width="3231.2528" y="1087.82963" x="-1409.02008" stroke-opacity="null" stroke-width="0" stroke="#000" fill="#00ffd8"/>
  <rect transform="rotate(50.529571533203125 144.31115722656295,1072.1704101562498) " id="svg_31" height="14.58335" width="3231.2528" y="1064.87882" x="-1471.31514" stroke-opacity="null" stroke-width="0" stroke="#000" fill="#00ffd8"/>
  <rect transform="rotate(50.529571533203125 121.36035156250054,1098.3999023437498) " id="svg_32" height="14.58335" width="3231.2528" y="1091.10831" x="-1494.26595" stroke-opacity="null" stroke-width="0" stroke="#000" fill="#00ffd8"/>
  <rect transform="rotate(50.529571533203125 85.29479980468805,1103.3179931640623) " id="svg_33" height="14.58335" width="3231.2528" y="1096.02634" x="-1530.3315" stroke-opacity="null" stroke-width="0" stroke="#000" fill="#00ffd8"/>
  <rect transform="rotate(50.529571533203125 62.34399414062565,1129.5474853515623) " id="svg_34" height="14.58335" width="3231.2528" y="1122.25584" x="-1553.28231" stroke-opacity="null" stroke-width="0" stroke="#000" fill="#00ffd8"/>
  <rect transform="rotate(50.529571533203125 59.0653076171882,1170.5310058593748) " id="svg_35" height="14.58335" width="3231.2528" y="1163.23943" x="-1556.561" stroke-opacity="null" stroke-width="0" stroke="#000" fill="#00ffd8"/>
  <rect transform="rotate(50.529571533203125 36.11450195312548,1196.7604980468748) " id="svg_36" height="14.58335" width="3231.2528" y="1189.46892" x="-1579.51181" stroke-opacity="null" stroke-width="0" stroke="#000" fill="#00ffd8"/>
  <rect transform="rotate(50.529571533203125 -8.147705078124769,1188.5638427734373) " id="svg_37" height="14.58335" width="3231.2528" y="1181.2722" x="-1623.77409" stroke-opacity="null" stroke-width="0" stroke="#000" fill="#00ffd8"/>
  <rect transform="rotate(50.529571533203125 -31.09851074218749,1214.7933349609375) " id="svg_38" height="14.58335" width="3231.2528" y="1207.5017" x="-1646.7249" stroke-opacity="null" stroke-width="0" stroke="#000" fill="#00ffd8"/>
  <rect transform="rotate(50.529571533203125 -67.16406249999997,1219.7113037109375) " id="svg_39" height="14.58335" width="3231.2528" y="1212.41973" x="-1682.79046" stroke-opacity="null" stroke-width="0" stroke="#000" fill="#00ffd8"/>
  <rect transform="rotate(50.529571533203125 -90.11486816406239,1245.9407958984375) " id="svg_40" height="14.58335" width="3231.2528" y="1238.64923" x="-1705.74127" stroke-opacity="null" stroke-width="0" stroke="#000" fill="#00ffd8"/>
  <rect transform="rotate(50.529571533203125 -93.39355468749982,1286.9244384765625) " id="svg_41" height="14.58335" width="3231.2528" y="1279.63282" x="-1709.01996" stroke-opacity="null" stroke-width="0" stroke="#000" fill="#00ffd8"/>
  <rect transform="rotate(50.529571533203125 -116.34448242187453,1313.1539306640623) " id="svg_42" height="14.58335" width="3231.2528" y="1305.86231" x="-1731.97077" stroke-opacity="null" stroke-width="0" stroke="#000" fill="#00ffd8"/>
  <rect transform="rotate(50.529571533203125 -178.6395263671872,1290.2031249999998) " id="svg_43" height="14.58335" width="3231.2528" y="1282.9115" x="-1794.26582" stroke-opacity="null" stroke-width="0" stroke="#000" fill="#00ffd8"/>
  <rect transform="rotate(50.529571533203125 -201.5903320312499,1316.4326171874998) " id="svg_44" height="14.58335" width="3231.2528" y="1309.141" x="-1817.21663" stroke-opacity="null" stroke-width="0" stroke="#000" fill="#00ffd8"/>
  <rect transform="rotate(50.529571533203125 -237.6558837890624,1321.3507080078123) " id="svg_45" height="14.58335" width="3231.2528" y="1314.05903" x="-1853.28219" stroke-opacity="null" stroke-width="0" stroke="#000" fill="#00ffd8"/>
  <rect transform="rotate(50.529571533203125 -260.6066894531251,1347.5802001953125) " id="svg_46" height="14.58335" width="3231.2528" y="1340.28853" x="-1876.233" stroke-opacity="null" stroke-width="0" stroke="#000" fill="#00ffd8"/>
  <rect transform="rotate(50.529571533203125 -263.8853759765622,1388.563720703125) " id="svg_47" height="14.58335" width="3231.2528" y="1381.27211" x="-1879.51169" stroke-opacity="null" stroke-width="0" stroke="#000" fill="#00ffd8"/>
  <rect transform="rotate(50.529571533203125 -286.83618164062466,1414.7932128906248) " id="svg_48" height="14.58335" width="3231.2528" y="1407.50161" x="-1902.4625" stroke-opacity="null" stroke-width="0" stroke="#000" fill="#00ffd8"/>
  <rect transform="rotate(50.529571533203125 1911.5235595703125,468.8921203613281) " id="svg_49" height="14.58335" width="3231.2528" y="461.60042" x="295.89717" stroke-opacity="null" stroke-width="0" stroke="#000" fill="#00ffd8"/>
  <rect transform="rotate(50.529571533203125 1888.5727539062502,495.121612548828) " id="svg_50" height="14.58335" width="3231.2528" y="487.82992" x="272.94636" stroke-opacity="null" stroke-width="0" stroke="#000" fill="#00ffd8"/>
  <rect transform="rotate(50.529571533203125 1852.5072021484375,500.0396423339843) " id="svg_51" height="14.58335" width="3231.2528" y="492.74795" x="236.88081" stroke-opacity="null" stroke-width="0" stroke="#000" fill="#00ffd8"/>
  <rect transform="rotate(50.529571533203125 1829.556396484375,526.2691040039062) " id="svg_52" height="14.58335" width="3231.2528" y="518.97744" x="213.93" stroke-opacity="null" stroke-width="0" stroke="#000" fill="#00ffd8"/>
  <rect transform="rotate(50.529571533203125 1826.2775878906252,567.2527465820311) " id="svg_53" height="14.58335" width="3231.2528" y="559.96103" x="210.65131" stroke-opacity="null" stroke-width="0" stroke="#000" fill="#00ffd8"/>
  <rect transform="rotate(50.529571533203125 1803.3269042968748,593.4822387695312) " id="svg_54" height="14.58335" width="3231.2528" y="586.19053" x="187.7005" stroke-opacity="null" stroke-width="0" stroke="#000" fill="#00ffd8"/>
  <rect transform="rotate(50.529571533203125 1741.0317382812498,570.5314331054686) " id="svg_55" height="14.58335" width="3231.2528" y="563.23972" x="125.40544" stroke-opacity="null" stroke-width="0" stroke="#000" fill="#00ffd8"/>
  <rect transform="rotate(50.529571533203125 1718.0809326171877,596.7609252929688) " id="svg_56" height="14.58335" width="3231.2528" y="589.46921" x="102.45463" stroke-opacity="null" stroke-width="0" stroke="#000" fill="#00ffd8"/>
  <rect transform="rotate(50.529571533203125 1682.015380859375,601.6789550781251) " id="svg_57" height="14.58335" width="3231.2528" y="594.38725" x="66.38908" stroke-opacity="null" stroke-width="0" stroke="#000" fill="#00ffd8"/>
  <rect transform="rotate(50.529571533203125 1659.0645751953123,627.9084472656251) " id="svg_58" height="14.58335" width="3231.2528" y="620.61674" x="43.43827" stroke-opacity="null" stroke-width="0" stroke="#000" fill="#00ffd8"/>
  <rect transform="rotate(50.529571533203125 1655.7858886718752,668.8920288085938) " id="svg_59" height="14.58335" width="3231.2528" y="661.60033" x="40.15958" stroke-opacity="null" stroke-width="0" stroke="#000" fill="#00ffd8"/>
  <rect transform="rotate(50.529571533203125 1632.8350830078127,695.1215209960936) " id="svg_60" height="14.58335" width="3231.2528" y="687.82983" x="17.20877" stroke-opacity="null" stroke-width="0" stroke="#000" fill="#00ffd8"/>
  <rect transform="rotate(50.529571533203125 1598.4089355468752,698.4002075195312) " id="svg_61" height="14.58335" width="3231.2528" y="691.10851" x="-17.21745" stroke-opacity="null" stroke-width="0" stroke="#000" fill="#00ffd8"/>
  <rect transform="rotate(50.529571533203125 1575.4581298828125,724.6296997070312) " id="svg_62" height="14.58335" width="3231.2528" y="717.338" x="-40.16826" stroke-opacity="null" stroke-width="0" stroke="#000" fill="#00ffd8"/>
  <rect transform="rotate(50.529571533203125 1539.392578125,729.5477294921874) " id="svg_63" height="14.58335" width="3231.2528" y="722.25604" x="-76.23382" stroke-opacity="null" stroke-width="0" stroke="#000" fill="#00ffd8"/>
  <rect transform="rotate(50.529571533203125 1516.4417724609375,755.7772216796874) " id="svg_64" height="14.58335" width="3231.2528" y="748.48553" x="-99.18463" stroke-opacity="null" stroke-width="0" stroke="#000" fill="#00ffd8"/>
  <rect transform="rotate(50.529571533203125 1513.1630859375,796.760803222656) " id="svg_65" height="14.58335" width="3231.2528" y="789.46912" x="-102.46332" stroke-opacity="null" stroke-width="0" stroke="#000" fill="#00ffd8"/>
  <rect transform="rotate(50.529571533203125 1490.2121582031248,822.9902954101564) " id="svg_66" height="14.58335" width="3231.2528" y="815.69861" x="-125.41413" stroke-opacity="null" stroke-width="0" stroke="#000" fill="#00ffd8"/>
  <rect transform="rotate(50.529571533203125 1427.9171142578127,800.0394897460936) " id="svg_67" height="14.58335" width="3231.2528" y="792.74781" x="-187.70918" stroke-opacity="null" stroke-width="0" stroke="#000" fill="#00ffd8"/>
  <rect transform="rotate(50.529571533203125 1404.96630859375,826.2689819335936) " id="svg_68" height="14.58335" width="3231.2528" y="818.9773" x="-210.65999" stroke-opacity="null" stroke-width="0" stroke="#000" fill="#00ffd8"/>
  <rect transform="rotate(50.529571533203125 1368.9007568359375,831.1870117187499) " id="svg_69" height="14.58335" width="3231.2528" y="823.89533" x="-246.72555" stroke-opacity="null" stroke-width="0" stroke="#000" fill="#00ffd8"/>
  <rect transform="rotate(50.529571533203125 1345.949951171875,857.41650390625) " id="svg_70" height="14.58335" width="3231.2528" y="850.12483" x="-269.67636" stroke-opacity="null" stroke-width="0" stroke="#000" fill="#00ffd8"/>
  <rect transform="rotate(50.529571533203125 1342.6712646484373,898.4000854492186) " id="svg_71" height="14.58335" width="3231.2528" y="891.10842" x="-272.95505" stroke-opacity="null" stroke-width="0" stroke="#000" fill="#00ffd8"/>
  <rect transform="rotate(50.529571533203125 1319.720458984375,924.6295776367185) " id="svg_72" height="14.58335" width="3231.2528" y="917.33791" x="-295.90586" stroke-opacity="null" stroke-width="0" stroke="#000" fill="#00ffd8"/>
  <rect transform="rotate(50.529571533203125 1275.4582519531257,916.4328613281245) " id="svg_73" height="14.58335" width="3231.2528" y="909.14119" x="-340.16813" stroke-opacity="null" stroke-width="0" stroke="#000" fill="#00ffd8"/>
  <rect transform="rotate(50.529571533203125 1252.5073242187502,942.6623535156249) " id="svg_74" height="14.58335" width="3231.2528" y="935.37069" x="-363.11894" stroke-opacity="null" stroke-width="0" stroke="#000" fill="#00ffd8"/>
  <rect transform="rotate(50.529571533203125 1216.4418945312505,947.580383300781) " id="svg_75" height="14.58335" width="3231.2528" y="940.28872" x="-399.1845" stroke-opacity="null" stroke-width="0" stroke="#000" fill="#00ffd8"/>
  <rect transform="rotate(50.529571533203125 1193.4909667968748,973.8098754882812) " id="svg_76" height="14.58335" width="3231.2528" y="966.51822" x="-422.13531" stroke-opacity="null" stroke-width="0" stroke="#000" fill="#00ffd8"/>
  <rect transform="rotate(50.529571533203125 1190.21240234375,1014.7935180664064) " id="svg_77" height="14.58335" width="3231.2528" y="1007.5018" x="-425.414" stroke-opacity="null" stroke-width="0" stroke="#000" fill="#00ffd8"/>
  <rect transform="rotate(50.529571533203125 1167.2614746093752,1041.0229492187498) " id="svg_78" height="14.58335" width="3231.2528" y="1033.7313" x="-448.36481" stroke-opacity="null" stroke-width="0" stroke="#000" fill="#00ffd8"/>
  <rect transform="rotate(50.529571533203125 1104.9665527343752,1018.0722045898436) " id="svg_79" height="14.58335" width="3231.2528" y="1010.78049" x="-510.65986" stroke-opacity="null" stroke-width="0" stroke="#000" fill="#00ffd8"/>
  <rect transform="rotate(50.529571533203125 1082.0156249999998,1044.3016357421873) " id="svg_80" height="14.58335" width="3231.2528" y="1037.00999" x="-533.61067" stroke-opacity="null" stroke-width="0" stroke="#000" fill="#00ffd8"/>
  <rect transform="rotate(50.529571533203125 1045.9501953125002,1049.2196044921873) " id="svg_81" height="14.58335" width="3231.2528" y="1041.92802" x="-569.67623" stroke-opacity="null" stroke-width="0" stroke="#000" fill="#00ffd8"/>
  <rect transform="rotate(50.529571533203125 1022.9993286132812,1075.4490966796875) " id="svg_82" height="14.58335" width="3231.2528" y="1068.15751" x="-592.62704" stroke-opacity="null" stroke-width="0" stroke="#000" fill="#00ffd8"/>
  <rect transform="rotate(50.529571533203125 1019.7206420898442,1116.4327392578125) " id="svg_83" height="14.58335" width="3231.2528" y="1109.1411" x="-595.90573" stroke-opacity="null" stroke-width="0" stroke="#000" fill="#00ffd8"/>
  <rect transform="rotate(50.529571533203125 996.7697753906255,1142.6622314453125) " id="svg_84" height="14.58335" width="3231.2528" y="1135.3706" x="-618.85654" stroke-opacity="null" stroke-width="0" stroke="#000" fill="#00ffd8"/>
  <rect transform="rotate(50.529571533203125 2824.6376953124995,-255.69773864746068) " id="svg_85" height="14.58335" width="3231.2528" y="-262.98942" x="1209.01149" stroke-opacity="null" stroke-width="0" stroke="#000" fill="#00ffd8"/>
  <rect transform="rotate(50.529571533203125 2801.68701171875,-229.46826171875014) " id="svg_86" height="14.58335" width="3231.2528" y="-236.75993" x="1186.06068" stroke-opacity="null" stroke-width="0" stroke="#000" fill="#00ffd8"/>
  <rect transform="rotate(50.529571533203125 2765.62158203125,-224.55021667480452) " id="svg_87" height="14.58335" width="3231.2528" y="-231.8419" x="1149.99513" stroke-opacity="null" stroke-width="0" stroke="#000" fill="#00ffd8"/>
  <rect transform="rotate(50.529571533203125 2742.6706542968755,-198.32072448730483) " id="svg_88" height="14.58335" width="3231.2528" y="-205.6124" x="1127.04432" stroke-opacity="null" stroke-width="0" stroke="#000" fill="#00ffd8"/>
  <rect transform="rotate(50.529571533203125 2739.39208984375,-157.33714294433585) " id="svg_89" height="14.58335" width="3231.2528" y="-164.62881" x="1123.76563" stroke-opacity="null" stroke-width="0" stroke="#000" fill="#00ffd8"/>
  <rect transform="rotate(50.529571533203125 2716.441162109375,-131.107650756836) " id="svg_90" height="14.58335" width="3231.2528" y="-138.39932" x="1100.81482" stroke-opacity="null" stroke-width="0" stroke="#000" fill="#00ffd8"/>
  <rect transform="rotate(50.529571533203125 2654.14599609375,-154.05845642089858) " id="svg_91" height="14.58335" width="3231.2528" y="-161.35013" x="1038.51976" stroke-opacity="null" stroke-width="0" stroke="#000" fill="#00ffd8"/>
  <rect transform="rotate(50.529571533203125 2631.1953125,-127.82896423339857) " id="svg_92" height="14.58335" width="3231.2528" y="-135.12063" x="1015.56895" stroke-opacity="null" stroke-width="0" stroke="#000" fill="#00ffd8"/>
  <rect transform="rotate(50.529571533203125 2595.1298828125,-122.91091918945325) " id="svg_93" height="14.58335" width="3231.2528" y="-130.2026" x="979.5034" stroke-opacity="null" stroke-width="0" stroke="#000" fill="#00ffd8"/>
  <rect transform="rotate(50.529571533203125 2572.178955078125,-96.68142700195293) " id="svg_94" height="14.58335" width="3231.2528" y="-103.9731" x="956.55259" stroke-opacity="null" stroke-width="0" stroke="#000" fill="#00ffd8"/>
  <rect transform="rotate(50.529571533203125 2568.900390625,-55.69784164428719) " id="svg_95" height="14.58335" width="3231.2528" y="-62.98951" x="953.2739" stroke-opacity="null" stroke-width="0" stroke="#000" fill="#00ffd8"/>
  <rect transform="rotate(50.529571533203125 2545.949462890625,-29.46834373474139) " id="svg_96" height="14.58335" width="3231.2528" y="-36.76002" x="930.32309" stroke-opacity="null" stroke-width="0" stroke="#000" fill="#00ffd8"/>
  <rect transform="rotate(50.529571533203125 2511.523193359375,-26.189661026000884) " id="svg_97" height="14.58335" width="3231.2528" y="-33.48134" x="895.89687" stroke-opacity="null" stroke-width="0" stroke="#000" fill="#00ffd8"/>
  <rect transform="rotate(50.529571533203125 2488.5722656249995,0.03983306884751168) " id="svg_98" height="14.58335" width="3231.2528" y="-7.25184" x="872.94606" stroke-opacity="null" stroke-width="0" stroke="#000" fill="#00ffd8"/>
  <rect transform="rotate(50.529571533203125 2452.5068359375,4.957864761352534) " id="svg_99" height="14.58335" width="3231.2528" y="-2.33381" x="836.8805" stroke-opacity="null" stroke-width="0" stroke="#000" fill="#00ffd8"/>
  <rect transform="rotate(50.529571533203125 2429.55615234375,31.18736076354963) " id="svg_100" height="14.58335" width="3231.2528" y="23.89569" x="813.92969" stroke-opacity="null" stroke-width="0" stroke="#000" fill="#00ffd8"/>
  <rect transform="rotate(50.529571533203125 2426.27734375,72.1709442138673) " id="svg_101" height="14.58335" width="3231.2528" y="64.87928" x="810.651" stroke-opacity="null" stroke-width="0" stroke="#000" fill="#00ffd8"/>
  <rect transform="rotate(50.529571533203125 2403.32666015625,98.4004440307618) " id="svg_102" height="14.58335" width="3231.2528" y="91.10877" x="787.70019" stroke-opacity="null" stroke-width="0" stroke="#000" fill="#00ffd8"/>
  <rect transform="rotate(50.529571533203125 2341.0314941406255,75.44963073730489) " id="svg_103" height="14.58335" width="3231.2528" y="68.15796" x="725.40514" stroke-opacity="null" stroke-width="0" stroke="#000" fill="#00ffd8"/>
  <rect transform="rotate(50.529571533203125 2318.0805664062505,101.67913055419925) " id="svg_104" height="14.58335" width="3231.2528" y="94.38746" x="702.45433" stroke-opacity="null" stroke-width="0" stroke="#000" fill="#00ffd8"/>
  <rect transform="rotate(50.529571533203125 2282.01513671875,106.59716033935571) " id="svg_105" height="14.58335" width="3231.2528" y="99.30549" x="666.38877" stroke-opacity="null" stroke-width="0" stroke="#000" fill="#00ffd8"/>
  <rect transform="rotate(50.529571533203125 2259.0644531249995,132.82666015625037) " id="svg_106" height="14.58335" width="3231.2528" y="125.53499" x="643.43796" stroke-opacity="null" stroke-width="0" stroke="#000" fill="#00ffd8"/>
  <rect transform="rotate(50.529571533203125 2255.78564453125,173.81024169921872) " id="svg_107" height="14.58335" width="3231.2528" y="166.51857" x="640.15927" stroke-opacity="null" stroke-width="0" stroke="#000" fill="#00ffd8"/>
  <rect transform="rotate(50.529571533203125 2232.834716796875,200.03973388671886) " id="svg_108" height="14.58335" width="3231.2528" y="192.74807" x="617.20846" stroke-opacity="null" stroke-width="0" stroke="#000" fill="#00ffd8"/>
  <rect transform="rotate(50.529571533203125 2188.572509765625,191.8430175781251) " id="svg_109" height="14.58335" width="3231.2528" y="184.55135" x="572.94618" stroke-opacity="null" stroke-width="0" stroke="#000" fill="#00ffd8"/>
  <rect transform="rotate(50.529571533203125 2165.62158203125,218.07250976562497) " id="svg_110" height="14.58335" width="3231.2528" y="210.78084" x="549.99537" stroke-opacity="null" stroke-width="0" stroke="#000" fill="#00ffd8"/>
  <rect transform="rotate(50.529571533203125 2129.55615234375,222.99055480957043) " id="svg_111" height="14.58335" width="3231.2528" y="215.69888" x="513.92982" stroke-opacity="null" stroke-width="0" stroke="#000" fill="#00ffd8"/>
  <rect transform="rotate(50.529571533203125 2106.60546875,249.22004699707043) " id="svg_112" height="14.58335" width="3231.2528" y="241.92837" x="490.97901" stroke-opacity="null" stroke-width="0" stroke="#000" fill="#00ffd8"/>
  <rect transform="rotate(50.529571533203125 2103.32666015625,290.20364379882795) " id="svg_113" height="14.58335" width="3231.2528" y="282.91196" x="487.70032" stroke-opacity="null" stroke-width="0" stroke="#000" fill="#00ffd8"/>
  <rect transform="rotate(50.529571533203125 2080.3759765625005,316.43313598632807) " id="svg_114" height="14.58335" width="3231.2528" y="309.14146" x="464.74951" stroke-opacity="null" stroke-width="0" stroke="#000" fill="#00ffd8"/>
  <rect transform="rotate(50.529571533203125 2018.0808105468752,293.4823303222655) " id="svg_115" height="14.58335" width="3231.2528" y="286.19065" x="402.45445" stroke-opacity="null" stroke-width="0" stroke="#000" fill="#00ffd8"/>
  <rect transform="rotate(50.529571533203125 1995.1300048828127,319.7118225097657) " id="svg_116" height="14.58335" width="3231.2528" y="312.42014" x="379.50364" stroke-opacity="null" stroke-width="0" stroke="#000" fill="#00ffd8"/>
  <rect transform="rotate(50.529571533203125 1959.064453125,324.62985229492176) " id="svg_117" height="14.58335" width="3231.2528" y="317.33817" x="343.43809" stroke-opacity="null" stroke-width="0" stroke="#000" fill="#00ffd8"/>
  <rect transform="rotate(50.529571533203125 1936.1136474609375,350.8593444824219) " id="svg_118" height="14.58335" width="3231.2528" y="343.56767" x="320.48728" stroke-opacity="null" stroke-width="0" stroke="#000" fill="#00ffd8"/>
  <rect transform="rotate(50.529571533203125 1932.8349609374998,391.8429565429688) " id="svg_119" height="14.58335" width="3231.2528" y="384.55126" x="317.20859" stroke-opacity="null" stroke-width="0" stroke="#000" fill="#00ffd8"/>
  <rect transform="rotate(50.529571533203125 1909.8841552734377,418.07244873046864) " id="svg_120" height="14.58335" width="3231.2528" y="410.78075" x="294.25778" stroke-opacity="null" stroke-width="0" stroke="#000" fill="#00ffd8"/>
 </g>
</svg>