<svg width="2560" height="1440" xmlns="http://www.w3.org/2000/svg">
 <!-- Created with Method Draw - http://github.com/duopixel/Method-Draw/ -->
 <g>
  <title>background</title>
  <rect fill="#ffffff" id="canvas_background" height="1442" width="2562" y="-1" x="-1"/>
  <g display="none" overflow="visible" y="0" x="0" height="100%" width="100%" id="canvasGrid">
   <rect fill="url(#gridpattern)" stroke-width="0" y="0" x="0" height="100%" width="100%"/>
  </g>
 </g>
 <g>
  <title>Layer 1</title>
  <path id="svg_349" d="m-97.44578,42.55158" opacity="0.5" stroke-opacity="null" stroke-width="null" stroke="#000" fill="#21ff00"/>
  <rect transform="rotate(-69.64901733398438 465.46264648437506,873.6721801757812) " id="svg_351" height="4.22535" width="2280.28027" y="871.55948" x="-674.67748" stroke-opacity="null" stroke-width="null" stroke="#000" fill="#00ce00"/>
  <rect transform="rotate(-69.64901733398438 417.2484130859377,870.1007690429689) " id="svg_354" height="4.22535" width="2280.28027" y="867.98805" x="-722.89177" stroke-opacity="null" stroke-width="null" stroke="#000" fill="#00ce00"/>
  <rect transform="rotate(-69.64901733398438 385.10559082031244,821.8864746093751) " id="svg_355" height="4.22535" width="2280.28027" y="819.77376" x="-755.03463" stroke-opacity="null" stroke-width="null" stroke="#000" fill="#00ce00"/>
  <rect transform="rotate(-69.64901733398438 322.60546875,850.4579467773438) " id="svg_356" height="4.22535" width="2280.28027" y="848.34519" x="-817.53463" stroke-opacity="null" stroke-width="null" stroke="#000" fill="#00ce00"/>
  <rect transform="rotate(-69.64901733398438 274.3912353515626,846.8864746093751) " id="svg_357" height="4.22535" width="2280.28027" y="844.77376" x="-865.74892" stroke-opacity="null" stroke-width="null" stroke="#000" fill="#00ce00"/>
  <rect transform="rotate(-69.64901733398438 242.2484130859379,798.6721801757815) " id="svg_358" height="4.22535" width="2280.28027" y="796.55948" x="-897.89177" stroke-opacity="null" stroke-width="null" stroke="#000" fill="#00ce00"/>
  <rect transform="rotate(-69.64901733398438 322.60546875,850.4579467773438) " id="svg_359" height="4.22535" width="2280.28027" y="848.34519" x="-817.53463" stroke-opacity="null" stroke-width="null" stroke="#000" fill="#00ce00"/>
  <rect transform="rotate(-69.64901733398438 274.3912353515626,846.8864746093751) " id="svg_360" height="4.22535" width="2280.28027" y="844.77376" x="-865.74892" stroke-opacity="null" stroke-width="null" stroke="#000" fill="#00ce00"/>
  <rect transform="rotate(-69.64901733398438 242.2484130859379,798.6721801757815) " id="svg_361" height="4.22535" width="2280.28027" y="796.55948" x="-897.89177" stroke-opacity="null" stroke-width="null" stroke="#000" fill="#00ce00"/>
  <rect transform="rotate(-69.64901733398438 201.17694091796895,773.6721801757814) " id="svg_362" height="4.22535" width="2280.28027" y="771.55948" x="-938.96319" stroke-opacity="null" stroke-width="null" stroke="#000" fill="#00ce00"/>
  <rect transform="rotate(-69.64901733398438 152.96270751953122,770.1007690429688) " id="svg_363" height="4.22535" width="2280.28027" y="767.98805" x="-987.17747" stroke-opacity="null" stroke-width="null" stroke="#000" fill="#00ce00"/>
  <rect transform="rotate(-69.64901733398438 120.81988525390649,721.8864746093751) " id="svg_364" height="4.22535" width="2280.28027" y="719.77376" x="-1019.32033" stroke-opacity="null" stroke-width="null" stroke="#000" fill="#00ce00"/>
  <rect transform="rotate(-69.64901733398438 58.31976318359385,750.4579467773439) " id="svg_365" height="4.22535" width="2280.28027" y="748.34519" x="-1081.82034" stroke-opacity="null" stroke-width="null" stroke="#000" fill="#00ce00"/>
  <rect transform="rotate(-69.64901733398438 10.105529785156312,746.886474609375) " id="svg_366" height="4.22535" width="2280.28027" y="744.77376" x="-1130.03462" stroke-opacity="null" stroke-width="null" stroke="#000" fill="#00ce00"/>
  <rect transform="rotate(-69.64901733398438 -22.03729248046877,698.6721801757814) " id="svg_367" height="4.22535" width="2280.28027" y="696.55948" x="-1162.17748" stroke-opacity="null" stroke-width="null" stroke="#000" fill="#00ce00"/>
  <rect transform="rotate(-69.64901733398438 58.31976318359385,750.4579467773439) " id="svg_368" height="4.22535" width="2280.28027" y="748.34519" x="-1081.82034" stroke-opacity="null" stroke-width="null" stroke="#000" fill="#00ce00"/>
  <rect transform="rotate(-69.64901733398438 10.105529785156312,746.886474609375) " id="svg_369" height="4.22535" width="2280.28027" y="744.77376" x="-1130.03462" stroke-opacity="null" stroke-width="null" stroke="#000" fill="#00ce00"/>
  <rect transform="rotate(-69.64901733398438 -22.03729248046877,698.6721801757814) " id="svg_370" height="4.22535" width="2280.28027" y="696.55948" x="-1162.17748" stroke-opacity="null" stroke-width="null" stroke="#000" fill="#00ce00"/>
  <rect transform="rotate(-69.64901733398438 -70.25164794921878,695.1007690429688) " id="svg_371" height="4.22535" width="2280.28027" y="692.98805" x="-1210.39178" stroke-opacity="null" stroke-width="null" stroke="#000" fill="#00ce00"/>
  <rect transform="rotate(-69.64901733398438 -118.46588134765614,691.5293579101564) " id="svg_372" height="4.22535" width="2280.28027" y="689.41662" x="-1258.60606" stroke-opacity="null" stroke-width="null" stroke="#000" fill="#00ce00"/>
  <rect transform="rotate(-69.64901733398438 -150.60870361328105,643.3150634765626) " id="svg_373" height="4.22535" width="2280.28027" y="641.20234" x="-1290.74892" stroke-opacity="null" stroke-width="null" stroke="#000" fill="#00ce00"/>
  <rect transform="rotate(-69.64901733398438 -213.1088256835937,671.8865356445312) " id="svg_374" height="4.22535" width="2280.28027" y="669.77377" x="-1353.24892" stroke-opacity="null" stroke-width="null" stroke="#000" fill="#00ce00"/>
  <rect transform="rotate(-69.64901733398438 -261.32305908203125,668.3150634765625) " id="svg_375" height="4.22535" width="2280.28027" y="666.20234" x="-1401.46321" stroke-opacity="null" stroke-width="null" stroke="#000" fill="#00ce00"/>
  <rect transform="rotate(-69.64901733398438 -293.46588134765614,620.1007690429688) " id="svg_376" height="4.22535" width="2280.28027" y="617.98805" x="-1433.60607" stroke-opacity="null" stroke-width="null" stroke="#000" fill="#00ce00"/>
  <rect transform="rotate(-69.64901733398438 -213.1088256835937,671.8865356445312) " id="svg_377" height="4.22535" width="2280.28027" y="669.77377" x="-1353.24892" stroke-opacity="null" stroke-width="null" stroke="#000" fill="#00ce00"/>
  <rect transform="rotate(-69.64901733398438 -261.32305908203125,668.3150634765625) " id="svg_378" height="4.22535" width="2280.28027" y="666.20234" x="-1401.46321" stroke-opacity="null" stroke-width="null" stroke="#000" fill="#00ce00"/>
  <rect transform="rotate(-69.64901733398438 -293.46588134765614,620.1007690429688) " id="svg_379" height="4.22535" width="2280.28027" y="617.98805" x="-1433.60607" stroke-opacity="null" stroke-width="null" stroke="#000" fill="#00ce00"/>
  <rect transform="rotate(-69.64901733398438 752.9626464843751,911.1721801757812) " id="svg_380" height="4.22535" width="2280.28027" y="909.05948" x="-387.17747" stroke-opacity="null" stroke-width="null" stroke="#000" fill="#00ce00"/>
  <rect transform="rotate(-69.64901733398438 704.7484130859377,907.6007080078126) " id="svg_381" height="4.22535" width="2280.28027" y="905.48805" x="-435.39176" stroke-opacity="null" stroke-width="null" stroke="#000" fill="#00ce00"/>
  <rect transform="rotate(-69.64901733398438 672.6055297851567,859.386413574219) " id="svg_382" height="4.22535" width="2280.28027" y="857.27376" x="-467.53462" stroke-opacity="null" stroke-width="null" stroke="#000" fill="#00ce00"/>
  <rect transform="rotate(-69.64901733398438 610.1055297851565,887.9578857421876) " id="svg_383" height="4.22535" width="2280.28027" y="885.84519" x="-530.03462" stroke-opacity="null" stroke-width="null" stroke="#000" fill="#00ce00"/>
  <rect transform="rotate(-69.64901733398438 561.8912353515626,884.3864135742188) " id="svg_384" height="4.22535" width="2280.28027" y="882.27376" x="-578.24891" stroke-opacity="null" stroke-width="null" stroke="#000" fill="#00ce00"/>
  <rect transform="rotate(-69.64901733398438 529.7484130859375,836.1721801757812) " id="svg_385" height="4.22535" width="2280.28027" y="834.05948" x="-610.39176" stroke-opacity="null" stroke-width="null" stroke="#000" fill="#00ce00"/>
  <rect transform="rotate(-69.64901733398438 610.1055297851565,887.9578857421876) " id="svg_386" height="4.22535" width="2280.28027" y="885.84519" x="-530.03462" stroke-opacity="null" stroke-width="null" stroke="#000" fill="#00ce00"/>
  <rect transform="rotate(-69.64901733398438 561.8912353515626,884.3864135742188) " id="svg_387" height="4.22535" width="2280.28027" y="882.27376" x="-578.24891" stroke-opacity="null" stroke-width="null" stroke="#000" fill="#00ce00"/>
  <rect transform="rotate(-69.64901733398438 529.7484130859375,836.1721801757812) " id="svg_388" height="4.22535" width="2280.28027" y="834.05948" x="-610.39176" stroke-opacity="null" stroke-width="null" stroke="#000" fill="#00ce00"/>
  <rect transform="rotate(-109.74303436279297 44.03417968749988,966.5293579101561) " id="svg_390" height="4.22535" width="2280.28027" y="964.41662" x="-1096.10602" stroke-opacity="null" stroke-width="null" stroke="#000" fill="#00ce00"/>
  <rect transform="rotate(-109.74303436279297 92.24841308593749,957.6007690429688) " id="svg_391" height="4.22535" width="2280.28027" y="955.48805" x="-1047.89173" stroke-opacity="null" stroke-width="null" stroke="#000" fill="#00ce00"/>
  <rect transform="rotate(-109.74303436279297 140.46276855468744,950.4579467773436) " id="svg_392" height="4.22535" width="2280.28027" y="948.3452" x="-999.67744" stroke-opacity="null" stroke-width="null" stroke="#000" fill="#00ce00"/>
  <rect transform="rotate(-109.74303436279297 44.03417968749988,966.5293579101561) " id="svg_393" height="4.22535" width="2280.28027" y="964.41662" x="-1096.10602" stroke-opacity="null" stroke-width="null" stroke="#000" fill="#00ce00"/>
  <rect transform="rotate(-109.74303436279297 92.24841308593749,957.6007690429688) " id="svg_394" height="4.22535" width="2280.28027" y="955.48805" x="-1047.89173" stroke-opacity="null" stroke-width="null" stroke="#000" fill="#00ce00"/>
  <rect transform="rotate(-109.74303436279297 140.46276855468744,950.4579467773436) " id="svg_395" height="4.22535" width="2280.28027" y="948.3452" x="-999.67744" stroke-opacity="null" stroke-width="null" stroke="#000" fill="#00ce00"/>
  <rect transform="rotate(-109.74303436279297 192.24853515625006,959.3864746093751) " id="svg_396" height="4.22535" width="2280.28027" y="957.27377" x="-947.89172" stroke-opacity="null" stroke-width="null" stroke="#000" fill="#00ce00"/>
  <rect transform="rotate(-109.74303436279297 240.462646484375,950.4578857421875) " id="svg_397" height="4.22535" width="2280.28027" y="948.3452" x="-899.67744" stroke-opacity="null" stroke-width="null" stroke="#000" fill="#00ce00"/>
  <rect transform="rotate(-109.74303436279297 288.67712402343744,943.3150634765625) " id="svg_398" height="4.22535" width="2280.28027" y="941.20234" x="-851.46315" stroke-opacity="null" stroke-width="null" stroke="#000" fill="#00ce00"/>
  <rect transform="rotate(-109.74303436279297 192.24853515625006,959.3864746093751) " id="svg_399" height="4.22535" width="2280.28027" y="957.27377" x="-947.89172" stroke-opacity="null" stroke-width="null" stroke="#000" fill="#00ce00"/>
  <rect transform="rotate(-109.74303436279297 240.462646484375,950.4578857421875) " id="svg_400" height="4.22535" width="2280.28027" y="948.3452" x="-899.67744" stroke-opacity="null" stroke-width="null" stroke="#000" fill="#00ce00"/>
  <rect transform="rotate(-109.74303436279297 288.67712402343744,943.3150634765625) " id="svg_401" height="4.22535" width="2280.28027" y="941.20234" x="-851.46315" stroke-opacity="null" stroke-width="null" stroke="#000" fill="#00ce00"/>
  <rect transform="rotate(-109.74303436279297 329.74853515625017,916.5293579101565) " id="svg_402" height="4.22535" width="2280.28027" y="914.41662" x="-810.39172" stroke-opacity="null" stroke-width="null" stroke="#000" fill="#00ce00"/>
  <rect transform="rotate(-109.74303436279297 377.9626464843751,907.600769042969) " id="svg_403" height="4.22535" width="2280.28027" y="905.48805" x="-762.17744" stroke-opacity="null" stroke-width="null" stroke="#000" fill="#00ce00"/>
  <rect transform="rotate(-109.74303436279297 426.177001953125,900.4579467773438) " id="svg_404" height="4.22535" width="2280.28027" y="898.3452" x="-713.96315" stroke-opacity="null" stroke-width="null" stroke="#000" fill="#00ce00"/>
  <rect transform="rotate(-109.74303436279297 329.74853515625017,916.5293579101565) " id="svg_405" height="4.22535" width="2280.28027" y="914.41662" x="-810.39172" stroke-opacity="null" stroke-width="null" stroke="#000" fill="#00ce00"/>
  <rect transform="rotate(-109.74303436279297 377.9626464843751,907.600769042969) " id="svg_406" height="4.22535" width="2280.28027" y="905.48805" x="-762.17744" stroke-opacity="null" stroke-width="null" stroke="#000" fill="#00ce00"/>
  <rect transform="rotate(-109.74303436279297 426.177001953125,900.4579467773438) " id="svg_407" height="4.22535" width="2280.28027" y="898.3452" x="-713.96315" stroke-opacity="null" stroke-width="null" stroke="#000" fill="#00ce00"/>
  <rect transform="rotate(-109.74303436279297 477.962890625,909.386474609375) " id="svg_408" height="4.22535" width="2280.28027" y="907.27377" x="-662.17743" stroke-opacity="null" stroke-width="null" stroke="#000" fill="#00ce00"/>
  <rect transform="rotate(-109.74303436279297 526.177001953125,900.4578857421875) " id="svg_409" height="4.22535" width="2280.28027" y="898.3452" x="-613.96314" stroke-opacity="null" stroke-width="null" stroke="#000" fill="#00ce00"/>
  <rect transform="rotate(-109.74303436279297 574.3912963867188,893.3150024414064) " id="svg_410" height="4.22535" width="2280.28027" y="891.20234" x="-565.74885" stroke-opacity="null" stroke-width="null" stroke="#000" fill="#00ce00"/>
  <rect transform="rotate(-109.74303436279297 477.962890625,909.386474609375) " id="svg_411" height="4.22535" width="2280.28027" y="907.27377" x="-662.17743" stroke-opacity="null" stroke-width="null" stroke="#000" fill="#00ce00"/>
  <rect transform="rotate(-109.74303436279297 526.177001953125,900.4578857421875) " id="svg_412" height="4.22535" width="2280.28027" y="898.3452" x="-613.96314" stroke-opacity="null" stroke-width="null" stroke="#000" fill="#00ce00"/>
  <rect transform="rotate(-109.74303436279297 574.3912963867188,893.3150024414064) " id="svg_413" height="4.22535" width="2280.28027" y="891.20234" x="-565.74885" stroke-opacity="null" stroke-width="null" stroke="#000" fill="#00ce00"/>
  <rect transform="rotate(-109.74303436279297 626.1770019531249,893.3150024414062) " id="svg_414" height="4.22535" width="2280.28027" y="891.20234" x="-513.96313" stroke-opacity="null" stroke-width="null" stroke="#000" fill="#00ce00"/>
  <rect transform="rotate(-109.74303436279297 674.3912963867189,884.3864135742189) " id="svg_415" height="4.22535" width="2280.28027" y="882.27377" x="-465.74885" stroke-opacity="null" stroke-width="null" stroke="#000" fill="#00ce00"/>
  <rect transform="rotate(-109.74303436279297 722.6055908203126,877.2435913085939) " id="svg_416" height="4.22535" width="2280.28027" y="875.13091" x="-417.53456" stroke-opacity="null" stroke-width="null" stroke="#000" fill="#00ce00"/>
  <rect transform="rotate(-109.74303436279297 626.1770019531249,893.3150024414062) " id="svg_417" height="4.22535" width="2280.28027" y="891.20234" x="-513.96313" stroke-opacity="null" stroke-width="null" stroke="#000" fill="#00ce00"/>
  <rect transform="rotate(-109.74303436279297 674.3912963867189,884.3864135742189) " id="svg_418" height="4.22535" width="2280.28027" y="882.27377" x="-465.74885" stroke-opacity="null" stroke-width="null" stroke="#000" fill="#00ce00"/>
  <rect transform="rotate(-109.74303436279297 722.6055908203126,877.2435913085939) " id="svg_419" height="4.22535" width="2280.28027" y="875.13091" x="-417.53456" stroke-opacity="null" stroke-width="null" stroke="#000" fill="#00ce00"/>
  <rect transform="rotate(-109.74303436279297 774.3912963867189,886.1721801757812) " id="svg_420" height="4.22535" width="2280.28027" y="884.05948" x="-365.74884" stroke-opacity="null" stroke-width="null" stroke="#000" fill="#00ce00"/>
  <rect transform="rotate(-109.74303436279297 822.6055908203125,877.2435913085939) " id="svg_421" height="4.22535" width="2280.28027" y="875.13091" x="-317.53455" stroke-opacity="null" stroke-width="null" stroke="#000" fill="#00ce00"/>
  <rect transform="rotate(-109.74303436279297 870.8198852539062,870.1007080078126) " id="svg_422" height="4.22535" width="2280.28027" y="867.98805" x="-269.32027" stroke-opacity="null" stroke-width="null" stroke="#000" fill="#00ce00"/>
  <rect transform="rotate(-109.74303436279297 774.3912963867189,886.1721801757812) " id="svg_423" height="4.22535" width="2280.28027" y="884.05948" x="-365.74884" stroke-opacity="null" stroke-width="null" stroke="#000" fill="#00ce00"/>
  <rect transform="rotate(-109.74303436279297 822.6055908203125,877.2435913085939) " id="svg_424" height="4.22535" width="2280.28027" y="875.13091" x="-317.53455" stroke-opacity="null" stroke-width="null" stroke="#000" fill="#00ce00"/>
  <rect transform="rotate(179.84580993652344 870.8198852539061,870.1007080078125) " id="svg_425" height="4.22535" width="2280.28027" y="867.98805" x="-269.32027" stroke-opacity="null" stroke-width="null" stroke="#000" fill="#00ce00"/>
  <rect transform="rotate(179.84580993652344 956.5341796874999,275.45782470703125) " id="svg_426" height="4.22535" width="2280.28027" y="273.34517" x="-183.60598" stroke-opacity="null" stroke-width="null" stroke="#000" fill="#00ce00"/>
  <rect transform="rotate(-90.33031463623047 597.6055908203126,602.2435913085939) " id="svg_427" height="4.22535" width="2280.28027" y="600.1309" x="-542.53455" stroke-opacity="null" stroke-width="null" stroke="#000" fill="#007f00"/>
  <rect stroke="#000" id="svg_428" height="1460.71434" width="2114.28586" y="-21.16873" x="599.74005" stroke-opacity="null" stroke-width="0" fill="#ffffff"/>
  <rect stroke="#000" id="svg_431" height="1491.07142" width="1158.92866" y="873.4742" x="-550.66666" stroke-opacity="null" stroke-width="0" fill="#ffffff"/>
  <rect stroke="#000" id="svg_432" height="353.57147" width="1107.143" y="-502.32147" x="148.74995" stroke-opacity="null" stroke-width="0" fill="#ffffff"/>
  <rect stroke="#000" id="svg_433" height="433.92862" width="744.64285" y="-159.26986" x="-79.45025" stroke-opacity="null" stroke-width="0" fill="#ffffff"/>
 </g>
</svg>